<svg xmlns="http://www.w3.org/2000/svg" xmlns:xlink="http://www.w3.org/1999/xlink" width="500" zoomAndPan="magnify" viewBox="0 0 375 374.999991" height="500" preserveAspectRatio="xMidYMid meet" version="1.0"><defs><filter x="0%" y="0%" width="100%" height="100%" id="3d1134c8f4"><feColorMatrix values="0 0 0 0 1 0 0 0 0 1 0 0 0 0 1 0 0 0 1 0" color-interpolation-filters="sRGB"/></filter><mask id="d90066315e"><g filter="url(#3d1134c8f4)"><rect x="-37.5" width="450" fill="#000000" y="-37.499999" height="449.999989" fill-opacity="0.54"/></g></mask><clipPath id="9892457b54"><rect x="0" width="375" y="0" height="375"/></clipPath></defs><g mask="url(#d90066315e)"><g transform="matrix(1, 0, 0, 1, 0, 0)"><g clip-path="url(#9892457b54)"><path fill="#ff8888" d="M 303.5625 304.660156 L 266.414062 304.660156 C 262.894531 304.660156 259.816406 301.800781 259.816406 298.066406 L 259.816406 210.582031 L 198.492188 256.300781 C 196.292969 257.839844 192.996094 257.839844 190.796875 256.300781 L 129.46875 210.582031 L 129.46875 298.066406 C 129.46875 301.800781 126.390625 304.660156 122.875 304.660156 L 85.726562 304.660156 C 71.878906 304.660156 60.886719 293.667969 60.886719 279.820312 L 60.886719 133.644531 C 60.886719 114.742188 76.273438 99.355469 95.179688 99.355469 C 102.871094 99.355469 110.347656 101.773438 116.0625 106.390625 L 194.753906 160.683594 L 273.445312 106.390625 C 279.160156 101.773438 286.636719 99.355469 294.109375 99.355469 C 313.234375 99.355469 328.621094 114.742188 328.621094 133.644531 L 328.621094 279.820312 C 328.621094 293.667969 317.410156 304.660156 303.5625 304.660156 Z M 273.007812 291.472656 L 303.5625 291.472656 C 310.15625 291.472656 315.429688 286.414062 315.429688 279.820312 L 315.429688 133.644531 C 315.429688 121.996094 305.980469 112.542969 294.109375 112.542969 C 289.492188 112.542969 284.875 114.082031 281.359375 116.941406 C 281.359375 116.941406 281.140625 117.160156 280.921875 117.160156 L 198.492188 174.089844 C 196.074219 175.628906 193.214844 175.628906 190.796875 174.089844 L 108.585938 117.160156 C 108.367188 117.160156 108.148438 116.941406 108.148438 116.941406 C 104.628906 114.082031 99.792969 112.542969 95.179688 112.542969 C 83.75 112.542969 74.078125 122.214844 74.078125 133.644531 L 74.078125 279.820312 C 74.078125 286.195312 79.351562 291.472656 85.726562 291.472656 L 116.28125 291.472656 L 116.28125 197.390625 C 116.28125 194.972656 117.601562 192.777344 119.796875 191.675781 C 121.996094 190.578125 124.632812 190.796875 126.613281 192.117188 L 194.535156 242.671875 L 262.675781 192.117188 C 264.652344 190.796875 267.292969 190.578125 269.488281 191.675781 C 271.6875 192.777344 273.007812 194.972656 273.007812 197.390625 Z M 273.007812 291.472656 " fill-opacity="1" fill-rule="evenodd"/><path fill="#ff8888" d="M 43.304688 375 C 19.34375 375 0 355.65625 0 331.695312 L 0 43.304688 C 0 19.34375 19.34375 0 43.304688 0 L 331.695312 0 C 355.65625 0 375 19.34375 375 43.304688 L 375 331.695312 C 375 355.65625 355.65625 375 331.695312 375 Z M 43.304688 13.1875 C 26.597656 13.1875 13.1875 26.597656 13.1875 43.304688 L 13.1875 331.695312 C 13.1875 348.402344 26.597656 361.8125 43.304688 361.8125 L 331.695312 361.8125 C 348.402344 361.8125 361.8125 348.402344 361.8125 331.695312 L 361.8125 43.304688 C 361.8125 26.597656 348.402344 13.1875 331.695312 13.1875 Z M 43.304688 13.1875 " fill-opacity="1" fill-rule="evenodd"/><path fill="#ff8888" d="M 10.550781 114.523438 L 6.59375 114.523438 C 2.859375 114.523438 0 111.445312 0 107.929688 L 0 43.082031 C 0 19.34375 19.34375 0 43.082031 0 L 80.011719 0 C 82.648438 0 85.066406 1.539062 85.945312 4.175781 C 89.683594 13.410156 91.660156 23.300781 91.660156 33.632812 C 91.660156 78.253906 55.171875 114.523438 10.550781 114.523438 Z M 43.082031 13.1875 C 26.597656 13.1875 13.1875 26.597656 13.1875 43.082031 L 13.1875 101.113281 C 49.238281 99.792969 78.472656 69.898438 78.472656 33.632812 C 78.472656 26.378906 77.375 19.5625 75.175781 13.1875 Z M 43.082031 13.1875 " fill-opacity="1" fill-rule="evenodd"/></g></g></g></svg>