<svg xmlns="http://www.w3.org/2000/svg" xmlns:xlink="http://www.w3.org/1999/xlink" width="500" zoomAndPan="magnify" viewBox="0 0 375 374.999991" height="500" preserveAspectRatio="xMidYMid meet" version="1.0"><defs><filter x="0%" y="0%" width="100%" height="100%" id="7e1eaa5b73"><feColorMatrix values="0 0 0 0 1 0 0 0 0 1 0 0 0 0 1 0 0 0 1 0" color-interpolation-filters="sRGB"/></filter><mask id="4fe6240f52"><g filter="url(#7e1eaa5b73)"><rect x="-37.5" width="450" fill="#000000" y="-37.499999" height="449.999989" fill-opacity="0.54"/></g></mask><clipPath id="111f9083fc"><path d="M 0 0 L 375 0 L 375 375 L 0 375 Z M 0 0 " clip-rule="nonzero"/></clipPath><clipPath id="4cb4d5a01d"><path d="M 45.75 -0.988281 L 329.25 -0.988281 C 341.382812 -0.988281 353.019531 3.832031 361.597656 12.410156 C 370.179688 20.992188 375 32.628906 375 44.761719 L 375 330.851562 C 375 342.984375 370.179688 354.621094 361.597656 363.203125 C 353.019531 371.78125 341.382812 376.601562 329.25 376.601562 L 45.75 376.601562 C 33.617188 376.601562 21.980469 371.78125 13.402344 363.203125 C 4.820312 354.621094 0 342.984375 0 330.851562 L 0 44.761719 C 0 32.628906 4.820312 20.992188 13.402344 12.410156 C 21.980469 3.832031 33.617188 -0.988281 45.75 -0.988281 Z M 45.75 -0.988281 " clip-rule="nonzero"/></clipPath><clipPath id="c618594a07"><rect x="0" width="375" y="0" height="375"/></clipPath><mask id="82fd200b4b"><g filter="url(#7e1eaa5b73)"><rect x="-37.5" width="450" fill="#000000" y="-37.499999" height="449.999989" fill-opacity="0.54"/></g></mask><clipPath id="2f44a0d662"><path d="M 58.582031 66.738281 L 316.582031 66.738281 L 316.582031 308.988281 L 58.582031 308.988281 Z M 58.582031 66.738281 " clip-rule="nonzero"/></clipPath><clipPath id="9dd039a33d"><rect x="0" width="375" y="0" height="375"/></clipPath></defs><g mask="url(#4fe6240f52)"><g transform="matrix(1, 0, 0, 1, 0, 0)"><g clip-path="url(#c618594a07)"><g clip-path="url(#111f9083fc)"><g clip-path="url(#4cb4d5a01d)"><path stroke-linecap="butt" transform="matrix(0.75, 0, 0, 0.75, 0.00133873, -0.988213)" fill="none" stroke-linejoin="miter" d="M 60.998219 -0.0000912359 L 438.998244 -0.0000912359 C 455.175328 -0.0000912359 470.690954 6.426993 482.128455 17.864493 C 493.571164 29.307202 499.998248 44.822828 499.998248 60.999913 L 499.998248 442.453063 C 499.998248 458.630147 493.571164 474.145773 482.128455 485.588482 C 470.690954 497.025983 455.175328 503.453067 438.998244 503.453067 L 60.998219 503.453067 C 44.821135 503.453067 29.305509 497.025983 17.868008 485.588482 C 6.425299 474.145773 -0.00178498 458.630147 -0.00178498 442.453063 L -0.00178498 60.999913 C -0.00178498 44.822828 6.425299 29.307202 17.868008 17.864493 C 29.305509 6.426993 44.821135 -0.0000912359 60.998219 -0.0000912359 Z M 60.998219 -0.0000912359 " stroke="#88a9ff" stroke-width="42" stroke-opacity="1" stroke-miterlimit="4"/></g></g></g></g></g><g mask="url(#82fd200b4b)"><g transform="matrix(1, 0, 0, 1, 0, 0)"><g clip-path="url(#9dd039a33d)"><path fill="#88a9ff" d="M 85.863281 292.777344 C 84.828125 292.777344 83.816406 292.417969 83.011719 291.746094 C 81.996094 290.898438 81.40625 289.644531 81.40625 288.320312 L 81.40625 155.675781 C 81.40625 153.523438 82.945312 151.679688 85.0625 151.292969 L 129.457031 143.179688 C 130.761719 142.945312 132.097656 143.296875 133.113281 144.140625 C 134.128906 144.988281 134.714844 146.242188 134.714844 147.566406 L 134.714844 280.210938 C 134.714844 282.363281 133.175781 284.207031 131.058594 284.59375 L 86.667969 292.707031 C 86.398438 292.753906 86.132812 292.777344 85.863281 292.777344 Z M 90.320312 159.394531 L 90.320312 282.976562 L 125.800781 276.496094 L 125.800781 152.910156 Z M 90.320312 159.394531 " fill-opacity="1" fill-rule="nonzero"/><path fill="#88a9ff" d="M 164.398438 292.867188 C 163.363281 292.867188 162.351562 292.507812 161.542969 291.832031 C 160.527344 290.984375 159.941406 289.730469 159.941406 288.410156 L 159.941406 152.023438 C 159.941406 149.871094 161.480469 148.023438 163.597656 147.636719 L 207.992188 139.527344 C 209.292969 139.289062 210.632812 139.640625 211.648438 140.488281 C 212.664062 141.332031 213.25 142.589844 213.25 143.910156 L 213.25 153.714844 C 213.25 154.320312 213.128906 154.917969 212.890625 155.472656 L 211.269531 159.25 C 225.917969 145.976562 241.179688 139.273438 256.84375 139.273438 C 269.183594 139.273438 281.558594 144.261719 290.796875 152.957031 C 300.632812 162.214844 306.050781 174.703125 306.050781 188.125 L 306.050781 280.296875 C 306.050781 282.453125 304.511719 284.296875 302.390625 284.683594 L 258 292.796875 C 256.695312 293.035156 255.359375 292.683594 254.34375 291.835938 C 253.328125 290.988281 252.738281 289.734375 252.738281 288.410156 L 252.738281 194.300781 C 248.722656 185.25 244.078125 185.25 242.523438 185.25 C 232.480469 185.25 219.058594 200.179688 213.695312 207.246094 L 213.695312 280.296875 C 213.695312 282.453125 212.152344 284.300781 210.03125 284.683594 L 165.191406 292.796875 C 164.929688 292.84375 164.664062 292.867188 164.398438 292.867188 Z M 168.855469 155.738281 L 168.855469 283.074219 L 204.78125 276.574219 L 204.78125 205.773438 C 204.78125 204.839844 205.078125 203.925781 205.625 203.167969 C 207.605469 200.421875 225.472656 176.335938 242.523438 176.335938 C 248.1875 176.335938 256.046875 178.996094 261.3125 191.671875 C 261.539062 192.214844 261.65625 192.796875 261.65625 193.382812 L 261.65625 283.066406 L 297.132812 276.582031 L 297.132812 188.125 C 297.132812 164.234375 276.300781 148.1875 256.84375 148.1875 C 237.476562 148.1875 218.375 160.605469 200.0625 185.089844 C 198.710938 186.898438 196.21875 187.40625 194.261719 186.28125 C 192.308594 185.152344 191.503906 182.738281 192.394531 180.664062 L 204.335938 152.800781 L 204.335938 149.257812 Z M 168.855469 155.738281 " fill-opacity="1" fill-rule="nonzero"/><path fill="#88a9ff" d="M 107.617188 125.367188 C 93.113281 125.367188 81.320312 113.609375 81.320312 99.160156 C 81.320312 84.710938 93.113281 72.953125 107.617188 72.953125 C 122.117188 72.953125 133.914062 84.710938 133.914062 99.160156 C 133.914062 113.609375 122.117188 125.367188 107.617188 125.367188 Z M 107.617188 81.867188 C 98.03125 81.867188 90.234375 89.625 90.234375 99.160156 C 90.234375 108.695312 98.03125 116.453125 107.617188 116.453125 C 117.199219 116.453125 125 108.695312 125 99.160156 C 125 89.625 117.199219 81.867188 107.617188 81.867188 Z M 107.617188 81.867188 " fill-opacity="1" fill-rule="nonzero"/><g clip-path="url(#2f44a0d662)"><path fill="#88a9ff" d="M 190.609375 427.207031 C 134.265625 427.207031 80.023438 406.84375 37.621094 369.820312 L -49.964844 384.535156 C -51.605469 384.8125 -53.269531 384.144531 -54.269531 382.8125 C -55.269531 381.476562 -55.441406 379.699219 -54.714844 378.195312 L -16.816406 299.882812 C -33.386719 267.257812 -41.789062 232.007812 -41.789062 195.078125 C -41.789062 133.097656 -17.613281 74.828125 26.289062 31 C 70.183594 -12.824219 128.539062 -36.960938 190.609375 -36.960938 C 200.996094 -36.960938 211.511719 -36.257812 221.863281 -34.871094 C 224.304688 -34.546875 226.015625 -32.300781 225.691406 -29.863281 C 225.363281 -27.425781 223.125 -25.710938 220.679688 -26.035156 C 210.71875 -27.371094 200.601562 -28.046875 190.609375 -28.046875 C 67.378906 -28.046875 -32.875 72.046875 -32.875 195.078125 C -32.875 231.316406 -24.464844 265.867188 -7.882812 297.765625 C -7.234375 299.011719 -7.210938 300.496094 -7.824219 301.761719 L -42.933594 374.3125 L 38.238281 360.679688 C 39.566406 360.453125 40.929688 360.847656 41.9375 361.742188 C 82.9375 398.210938 135.738281 418.292969 190.609375 418.292969 C 313.882812 418.292969 414.179688 318.199219 414.179688 195.167969 C 414.179688 121.328125 377.683594 52.386719 316.554688 10.757812 C 314.519531 9.375 313.992188 6.601562 315.378906 4.566406 C 316.765625 2.53125 319.535156 2.003906 321.570312 3.390625 C 385.140625 46.683594 423.09375 118.375 423.09375 195.167969 C 423.09375 257.140625 398.898438 315.414062 354.96875 359.246094 C 311.050781 403.070312 252.679688 427.207031 190.609375 427.207031 Z M 190.609375 427.207031 " fill-opacity="1" fill-rule="nonzero"/></g></g></g></g></svg>