<svg xmlns="http://www.w3.org/2000/svg" xmlns:xlink="http://www.w3.org/1999/xlink" width="500" zoomAndPan="magnify" viewBox="0 0 375 374.999991" height="500" preserveAspectRatio="xMidYMid meet" version="1.0"><defs><filter x="0%" y="0%" width="100%" height="100%" id="b69ce6db9c"><feColorMatrix values="0 0 0 0 1 0 0 0 0 1 0 0 0 0 1 0 0 0 1 0" color-interpolation-filters="sRGB"/></filter><mask id="33c854ac8c"><g filter="url(#b69ce6db9c)"><rect x="-37.5" width="450" fill="#000000" y="-37.499999" height="449.999989" fill-opacity="0.54"/></g></mask><clipPath id="5724ab751e"><rect x="0" width="375" y="0" height="375"/></clipPath></defs><g mask="url(#33c854ac8c)"><g transform="matrix(1, 0, 0, 1, 0, 0)"><g clip-path="url(#5724ab751e)"><path fill="#a0ff88" d="M 179.585938 324.441406 C 173.871094 324.441406 169.695312 320.925781 168.375 315.429688 C 167.496094 311.472656 168.375 305.757812 169.695312 297.40625 C 170.136719 294.769531 170.574219 292.128906 170.792969 290.59375 C 170.792969 287.292969 170.574219 287.074219 167.277344 285.976562 C 163.761719 284.65625 160.023438 283.339844 156.285156 282.019531 C 99.792969 261.578125 35.828125 238.496094 45.5 161.34375 C 55.613281 80.230469 126.613281 51.65625 183.984375 51.65625 C 255.640625 51.65625 329.71875 92.980469 330.160156 162.441406 C 327.960938 234.980469 262.457031 281.140625 198.492188 316.96875 C 198.050781 317.1875 197.613281 317.410156 196.953125 317.628906 C 191.675781 320.925781 185.300781 324.441406 179.585938 324.441406 Z M 183.984375 64.84375 C 129.46875 64.84375 67.703125 90.5625 58.46875 162.882812 C 50.117188 229.703125 103.972656 249.046875 160.902344 269.488281 C 164.417969 270.808594 168.15625 272.128906 171.894531 273.445312 C 180.464844 276.742188 184.203125 282.238281 183.761719 291.25 C 183.761719 293.667969 183.324219 296.527344 182.664062 299.605469 C 182.222656 302.683594 181.34375 307.957031 181.125 311.035156 C 184.203125 310.15625 188.597656 307.296875 190.359375 306.417969 C 191.015625 305.980469 191.675781 305.539062 192.117188 305.320312 C 252.785156 271.46875 314.992188 227.945312 316.96875 162.441406 C 316.53125 101.332031 249.046875 64.84375 183.984375 64.84375 Z M 183.984375 64.84375 " fill-opacity="1" fill-rule="evenodd"/><path fill="#a0ff88" d="M 132.546875 203.765625 L 99.574219 203.765625 C 95.839844 203.765625 92.980469 200.910156 92.980469 197.171875 L 92.980469 137.382812 C 92.980469 133.644531 95.839844 130.789062 99.574219 130.789062 C 103.09375 130.789062 106.167969 133.644531 106.167969 137.382812 L 106.167969 190.578125 L 132.546875 190.578125 C 136.0625 190.578125 139.140625 193.65625 139.140625 197.171875 C 139.140625 200.910156 136.0625 203.765625 132.546875 203.765625 Z M 132.546875 203.765625 " fill-opacity="1" fill-rule="evenodd"/><path fill="#a0ff88" d="M 154.089844 203.765625 C 150.351562 203.765625 147.492188 200.910156 147.492188 197.171875 L 147.492188 137.382812 C 147.492188 133.644531 150.351562 130.789062 154.089844 130.789062 C 157.605469 130.789062 160.683594 133.644531 160.683594 137.382812 L 160.683594 197.171875 C 160.683594 200.910156 157.605469 203.765625 154.089844 203.765625 Z M 154.089844 203.765625 " fill-opacity="1" fill-rule="evenodd"/><path fill="#a0ff88" d="M 213.65625 203.765625 C 211.460938 203.765625 209.480469 202.667969 208.164062 200.6875 L 183.542969 160.683594 L 183.542969 197.171875 C 183.542969 200.910156 180.464844 203.765625 176.949219 203.765625 C 173.210938 203.765625 170.355469 200.910156 170.355469 197.171875 L 170.355469 137.601562 C 170.355469 134.523438 172.113281 131.886719 174.96875 131.226562 C 177.828125 130.347656 180.90625 131.449219 182.445312 134.085938 L 207.0625 174.089844 L 207.0625 137.601562 C 207.0625 133.867188 210.140625 131.007812 213.65625 131.007812 C 217.394531 131.007812 220.253906 133.867188 220.253906 137.601562 L 220.253906 197.171875 C 220.253906 200.25 218.492188 202.886719 215.636719 203.546875 C 214.976562 203.765625 214.316406 203.765625 213.65625 203.765625 Z M 213.65625 203.765625 " fill-opacity="1" fill-rule="evenodd"/><path fill="#a0ff88" d="M 275.207031 203.765625 L 235.417969 203.765625 C 231.902344 203.765625 228.824219 200.910156 228.824219 197.171875 L 228.824219 137.601562 C 228.824219 133.867188 231.902344 131.007812 235.417969 131.007812 L 275.207031 131.007812 C 278.941406 131.007812 281.800781 133.867188 281.800781 137.601562 C 281.800781 141.121094 278.941406 144.195312 275.207031 144.195312 L 242.011719 144.195312 L 242.011719 190.578125 L 275.207031 190.578125 C 278.941406 190.578125 281.800781 193.65625 281.800781 197.171875 C 281.800781 200.910156 278.941406 203.765625 275.207031 203.765625 Z M 275.207031 203.765625 " fill-opacity="1" fill-rule="evenodd"/><path fill="#a0ff88" d="M 275.207031 174.089844 L 235.417969 174.089844 C 231.902344 174.089844 228.824219 171.015625 228.824219 167.496094 C 228.824219 163.761719 231.902344 160.902344 235.417969 160.902344 L 275.207031 160.902344 C 278.941406 160.902344 281.800781 163.761719 281.800781 167.496094 C 281.800781 171.015625 278.941406 174.089844 275.207031 174.089844 Z M 275.207031 174.089844 " fill-opacity="1" fill-rule="evenodd"/><path fill="#a0ff88" d="M 43.304688 375 C 19.34375 375 0 355.65625 0 331.695312 L 0 43.304688 C 0 19.34375 19.34375 0 43.304688 0 L 331.695312 0 C 355.65625 0 375 19.34375 375 43.304688 L 375 331.695312 C 375 355.65625 355.65625 375 331.695312 375 Z M 43.304688 13.1875 C 26.597656 13.1875 13.1875 26.597656 13.1875 43.304688 L 13.1875 331.695312 C 13.1875 348.402344 26.597656 361.8125 43.304688 361.8125 L 331.695312 361.8125 C 348.402344 361.8125 361.8125 348.402344 361.8125 331.695312 L 361.8125 43.304688 C 361.8125 26.597656 348.402344 13.1875 331.695312 13.1875 Z M 43.304688 13.1875 " fill-opacity="1" fill-rule="evenodd"/><path fill="#a0ff88" d="M 10.550781 114.523438 L 6.59375 114.523438 C 2.859375 114.523438 0 111.445312 0 107.929688 L 0 43.082031 C 0 19.34375 19.34375 0 43.082031 0 L 80.011719 0 C 82.648438 0 85.066406 1.539062 85.945312 4.175781 C 89.683594 13.410156 91.660156 23.300781 91.660156 33.632812 C 91.660156 78.253906 55.171875 114.523438 10.550781 114.523438 Z M 43.082031 13.1875 C 26.597656 13.1875 13.1875 26.597656 13.1875 43.082031 L 13.1875 101.113281 C 49.238281 99.792969 78.472656 69.898438 78.472656 33.632812 C 78.472656 26.378906 77.375 19.5625 75.175781 13.1875 Z M 43.082031 13.1875 " fill-opacity="1" fill-rule="evenodd"/></g></g></g></svg>