<svg xmlns="http://www.w3.org/2000/svg" xmlns:xlink="http://www.w3.org/1999/xlink" width="500" zoomAndPan="magnify" viewBox="0 0 375 374.999991" height="500" preserveAspectRatio="xMidYMid meet" version="1.0"><defs><filter x="0%" y="0%" width="100%" height="100%" id="f87589841b"><feColorMatrix values="0 0 0 0 1 0 0 0 0 1 0 0 0 0 1 0 0 0 1 0" color-interpolation-filters="sRGB"/></filter><mask id="722a50b32b"><g filter="url(#f87589841b)"><rect x="-37.5" width="450" fill="#000000" y="-37.499999" height="449.999989" fill-opacity="0.54"/></g></mask><clipPath id="f2a1b4bed2"><path d="M 0 0 L 375 0 L 375 375 L 0 375 Z M 0 0 " clip-rule="nonzero"/></clipPath><clipPath id="3cca33c41d"><rect x="0" width="375" y="0" height="375"/></clipPath></defs><g mask="url(#722a50b32b)"><g transform="matrix(1, 0, 0, 1, 0, 0)"><g clip-path="url(#3cca33c41d)"><g clip-path="url(#f2a1b4bed2)"><path fill="#fffa88" d="M 318.703125 -0.03125 L 56.296875 -0.03125 C 25.234375 -0.03125 -0.03125 25.234375 -0.03125 56.296875 L -0.03125 318.707031 C -0.03125 349.769531 25.234375 375.035156 56.296875 375.035156 L 318.707031 375.035156 C 349.769531 375.035156 375.035156 349.769531 375.035156 318.707031 L 375.035156 56.296875 C 375.03125 25.234375 349.765625 -0.03125 318.703125 -0.03125 Z M 358.9375 318.703125 C 358.9375 340.886719 340.886719 358.9375 318.703125 358.9375 L 56.296875 358.9375 C 34.113281 358.9375 16.0625 340.886719 16.0625 318.703125 L 16.0625 56.296875 C 16.0625 34.113281 34.113281 16.0625 56.296875 16.0625 L 318.707031 16.0625 C 340.890625 16.0625 358.941406 34.113281 358.941406 56.296875 L 358.941406 318.703125 Z M 358.9375 318.703125 " fill-opacity="1" fill-rule="nonzero"/></g><path fill="#fffa88" d="M 187.5 103.003906 C 140.910156 103.003906 103.003906 140.90625 103.003906 187.5 C 103.003906 234.09375 140.910156 271.996094 187.5 271.996094 C 234.089844 271.996094 271.996094 234.09375 271.996094 187.5 C 271.996094 140.90625 234.089844 103.003906 187.5 103.003906 Z M 187.5 255.902344 C 149.78125 255.902344 119.097656 225.21875 119.097656 187.5 C 119.097656 149.78125 149.78125 119.097656 187.5 119.097656 C 225.21875 119.097656 255.902344 149.78125 255.902344 187.5 C 255.902344 225.21875 225.21875 255.902344 187.5 255.902344 Z M 187.5 255.902344 " fill-opacity="1" fill-rule="nonzero"/><path fill="#fffa88" d="M 309.097656 22.53125 C 282.472656 22.53125 260.8125 44.191406 260.8125 70.816406 C 260.8125 77.457031 262.167969 83.796875 264.601562 89.5625 C 243.363281 72.808594 216.589844 62.769531 187.5 62.769531 C 118.71875 62.769531 62.769531 118.722656 62.769531 187.5 C 62.769531 256.277344 118.71875 312.230469 187.5 312.230469 C 256.28125 312.230469 312.230469 256.277344 312.230469 187.5 C 312.230469 160.214844 303.402344 134.96875 288.484375 114.410156 C 294.746094 117.382812 301.71875 119.097656 309.097656 119.097656 C 335.722656 119.097656 357.378906 97.441406 357.378906 70.816406 C 357.378906 44.191406 335.722656 22.53125 309.097656 22.53125 Z M 187.5 296.136719 C 127.597656 296.136719 78.863281 247.402344 78.863281 187.5 C 78.863281 127.597656 127.597656 78.863281 187.5 78.863281 C 247.402344 78.863281 296.136719 127.597656 296.136719 187.5 C 296.136719 247.402344 247.402344 296.136719 187.5 296.136719 Z M 309.097656 103.003906 C 291.347656 103.003906 276.910156 88.5625 276.910156 70.816406 C 276.910156 53.066406 291.347656 38.625 309.097656 38.625 C 326.84375 38.625 341.285156 53.066406 341.285156 70.816406 C 341.285156 88.5625 326.84375 103.003906 309.097656 103.003906 Z M 309.097656 103.003906 " fill-opacity="1" fill-rule="nonzero"/></g></g></g></svg>