<svg xmlns="http://www.w3.org/2000/svg" xmlns:xlink="http://www.w3.org/1999/xlink" viewBox="0 0 1440 809.999993" preserveAspectRatio="none" version="1.0"><defs><clipPath id="b8887fb3c2"><path d="M 33.996094 313 L 1405.746094 313 L 1405.746094 497 L 33.996094 497 Z M 33.996094 313 " clip-rule="nonzero"/></clipPath></defs><g clip-path="url(#b8887fb3c2)"><path fill="#6e068e" d="M 848.089844 496.238281 C 848.089844 435.515625 848.089844 374.710938 848.089844 313.816406 L 892.09375 313.816406 C 892.09375 374.710938 892.09375 435.515625 892.09375 496.238281 Z M 364.03125 496.238281 C 364.03125 435.515625 364.03125 374.710938 364.03125 313.816406 L 320.027344 313.816406 C 320.027344 374.710938 320.027344 435.515625 320.027344 496.238281 Z M 287.023438 496.238281 C 287.023438 435.515625 287.023438 374.710938 287.023438 313.816406 L 243.019531 313.816406 C 243.019531 374.710938 243.019531 435.515625 243.019531 496.238281 Z M 573.058594 496.238281 C 573.058594 435.511719 573.058594 374.707031 573.058594 313.816406 L 540.054688 313.816406 C 540.054688 374.707031 540.054688 435.511719 540.054688 496.238281 Z M 144.007812 496.238281 C 144.007812 435.511719 144.007812 374.707031 144.007812 313.816406 L 111.003906 313.816406 C 111.003906 374.707031 111.003906 435.511719 111.003906 496.238281 Z M 1299.140625 496.238281 C 1299.140625 435.511719 1299.140625 374.707031 1299.140625 313.816406 L 1266.136719 313.816406 C 1266.136719 374.707031 1266.136719 435.511719 1266.136719 496.238281 Z M 232.015625 496.238281 C 232.015625 435.511719 232.015625 374.707031 232.015625 313.816406 L 199.011719 313.816406 C 199.011719 374.703125 199.011719 435.511719 199.011719 496.238281 Z M 452.042969 496.238281 C 452.042969 435.59375 452.042969 374.808594 452.042969 313.816406 L 430.039062 313.816406 C 430.039062 374.730469 430.039062 435.554688 430.039062 496.238281 Z M 89 496.238281 C 89 435.554688 89 374.730469 89 313.816406 L 66.996094 313.816406 C 66.996094 374.730469 66.996094 435.554688 66.996094 496.238281 Z M 1343.148438 496.238281 C 1343.148438 435.554688 1343.148438 374.730469 1343.148438 313.816406 L 1321.144531 313.816406 C 1321.144531 374.730469 1321.144531 435.554688 1321.144531 496.238281 Z M 716.074219 496.238281 C 716.074219 435.59375 716.074219 374.808594 716.074219 313.816406 L 694.070312 313.816406 C 694.070312 374.730469 694.070312 435.554688 694.070312 496.238281 Z M 1178.128906 496.238281 C 1178.128906 435.554688 1178.128906 374.730469 1178.128906 313.816406 L 1156.125 313.816406 C 1156.125 374.730469 1156.125 435.554688 1156.125 496.238281 Z M 617.0625 496.238281 C 617.0625 435.554688 617.0625 374.730469 617.0625 313.816406 L 595.058594 313.816406 C 595.058594 374.730469 595.058594 435.554688 595.058594 496.238281 Z M 1079.117188 496.238281 C 1079.117188 435.589844 1079.117188 374.808594 1079.117188 313.816406 L 1057.113281 313.816406 C 1057.113281 374.730469 1057.113281 435.554688 1057.113281 496.238281 Z M 1013.109375 496.238281 C 1013.109375 435.589844 1013.109375 374.808594 1013.109375 313.816406 L 991.105469 313.816406 C 991.105469 374.734375 991.105469 435.558594 991.105469 496.238281 Z M 1406.003906 496.238281 L 1406.003906 313.816406 L 1398.152344 313.816406 C 1398.152344 374.570312 1398.152344 435.40625 1398.152344 496.238281 Z M 1376.152344 496.238281 C 1376.152344 435.40625 1376.152344 374.574219 1376.152344 313.816406 L 1365.148438 313.816406 C 1365.148438 374.570312 1365.148438 435.40625 1365.148438 496.238281 Z M 1255.136719 496.238281 C 1255.136719 435.40625 1255.136719 374.574219 1255.136719 313.816406 L 1244.136719 313.816406 C 1244.136719 374.570312 1244.136719 435.40625 1244.136719 496.238281 Z M 1200.128906 496.238281 C 1200.128906 435.40625 1200.128906 374.574219 1200.128906 313.816406 L 1189.128906 313.816406 C 1189.128906 374.570312 1189.128906 435.40625 1189.128906 496.238281 Z M 1134.121094 496.238281 C 1134.121094 435.40625 1134.121094 374.574219 1134.121094 313.816406 L 1123.121094 313.816406 C 1123.121094 374.570312 1123.121094 435.40625 1123.121094 496.238281 Z M 1101.117188 496.238281 C 1101.117188 435.40625 1101.117188 374.574219 1101.117188 313.816406 L 1090.117188 313.816406 C 1090.117188 374.570312 1090.117188 435.40625 1090.117188 496.238281 Z M 947.101562 496.238281 C 947.101562 435.40625 947.101562 374.574219 947.101562 313.816406 L 936.097656 313.816406 C 936.097656 374.570312 936.097656 435.40625 936.097656 496.238281 Z M 925.097656 496.238281 C 925.097656 435.40625 925.097656 374.574219 925.097656 313.816406 L 914.097656 313.816406 C 914.097656 374.570312 914.097656 435.40625 914.097656 496.238281 Z M 837.089844 496.238281 C 837.089844 435.40625 837.089844 374.574219 837.089844 313.816406 L 826.085938 313.816406 C 826.085938 374.570312 826.085938 435.40625 826.085938 496.238281 Z M 804.085938 496.238281 C 804.085938 435.40625 804.085938 374.574219 804.085938 313.816406 L 793.082031 313.816406 C 793.082031 374.570312 793.082031 435.40625 793.082031 496.238281 Z M 761.421875 496.238281 L 771.082031 496.238281 C 771.082031 435.40625 771.082031 374.574219 771.082031 313.816406 L 760.078125 313.816406 C 760.078125 374.570312 760.078125 435.40625 760.078125 496.238281 Z M 738.078125 496.238281 C 738.078125 435.40625 738.078125 374.574219 738.078125 313.816406 L 727.074219 313.816406 C 727.074219 374.570312 727.074219 435.40625 727.074219 496.238281 Z M 650.066406 496.238281 C 650.066406 435.40625 650.066406 374.574219 650.066406 313.816406 L 639.066406 313.816406 C 639.066406 374.570312 639.066406 435.40625 639.066406 496.238281 Z M 519.082031 496.238281 L 529.050781 496.238281 C 529.050781 435.40625 529.050781 374.574219 529.050781 313.816406 L 518.050781 313.816406 C 518.050781 374.570312 518.050781 435.40625 518.050781 496.238281 Z M 474.046875 496.238281 C 474.046875 435.40625 474.046875 374.574219 474.046875 313.816406 L 463.042969 313.816406 C 463.042969 374.570312 463.042969 435.40625 463.042969 496.238281 Z M 408.039062 496.238281 C 408.039062 435.40625 408.039062 374.570312 408.039062 313.816406 L 397.035156 313.816406 C 397.035156 374.570312 397.035156 435.402344 397.035156 496.238281 Z M 309.027344 496.238281 C 309.027344 435.40625 309.027344 374.574219 309.027344 313.816406 L 298.023438 313.816406 C 298.023438 374.570312 298.023438 435.402344 298.023438 496.238281 Z M 188.011719 496.238281 C 188.011719 435.40625 188.011719 374.574219 188.011719 313.816406 L 177.011719 313.816406 C 177.011719 374.570312 177.011719 435.40625 177.011719 496.238281 Z M 166.007812 496.238281 C 166.007812 435.40625 166.007812 374.570312 166.007812 313.816406 L 155.007812 313.816406 C 155.007812 374.566406 155.007812 435.402344 155.007812 496.238281 Z M 33.996094 496.238281 L 44.996094 496.238281 C 44.996094 435.40625 44.996094 374.574219 44.996094 313.816406 L 33.996094 313.816406 Z M 33.996094 496.238281 " fill-opacity="1" fill-rule="nonzero"/></g></svg>