<svg xmlns="http://www.w3.org/2000/svg" xmlns:xlink="http://www.w3.org/1999/xlink" width="1920" zoomAndPan="magnify" viewBox="0 0 1440 809.999993" height="1080" preserveAspectRatio="xMidYMid meet" version="1.0"><defs><clipPath id="b5762e3091"><path d="M 331 631 L 474 631 L 474 792.675781 L 331 792.675781 Z M 331 631 " clip-rule="nonzero"/></clipPath><clipPath id="49fb363aa5"><path d="M 966 631 L 1108 631 L 1108 792.675781 L 966 792.675781 Z M 966 631 " clip-rule="nonzero"/></clipPath><clipPath id="a8982830c0"><path d="M 765 17.175781 L 1120.320312 17.175781 L 1120.320312 646 L 765 646 Z M 765 17.175781 " clip-rule="nonzero"/></clipPath><clipPath id="a7ebfc59ee"><path d="M 319.320312 17.175781 L 675 17.175781 L 675 646 L 319.320312 646 Z M 319.320312 17.175781 " clip-rule="nonzero"/></clipPath><clipPath id="51b2a7ebe0"><path d="M 747 17.175781 L 787 17.175781 L 787 51 L 747 51 Z M 747 17.175781 " clip-rule="nonzero"/></clipPath><clipPath id="00cfd1e34e"><path d="M 472 778 L 968 778 L 968 792.675781 L 472 792.675781 Z M 472 778 " clip-rule="nonzero"/></clipPath></defs><g clip-path="url(#b5762e3091)"><path fill="#ffffff" d="M 473.410156 791.570312 L 472.054688 792.925781 L 386.023438 792.925781 L 385.804688 792.761719 L 331.960938 738.863281 L 331.960938 631.066406 L 333.316406 632.425781 L 333.316406 738.320312 L 386.566406 791.570312 Z M 473.410156 791.570312 " fill-opacity="1" fill-rule="nonzero"/></g><g clip-path="url(#49fb363aa5)"><path fill="#ffffff" d="M 1107.710938 631.066406 L 1107.710938 738.863281 L 1107.546875 739.082031 L 1053.648438 792.925781 L 967.617188 792.925781 L 966.257812 791.570312 L 1053.105469 791.570312 L 1106.351562 738.320312 L 1106.351562 632.480469 L 1107.546875 631.285156 Z M 1107.710938 631.066406 " fill-opacity="1" fill-rule="nonzero"/></g><g clip-path="url(#a8982830c0)"><path fill="#ffffff" d="M 1120.300781 44.046875 L 1120.300781 171.4375 L 1120.085938 171.652344 L 1107.710938 183.976562 L 1107.710938 631.066406 L 1107.546875 631.285156 L 1093 645.832031 L 1093 79.707031 L 1045.179688 31.886719 L 765.589844 31.886719 L 780.410156 17.175781 L 1093.378906 17.175781 L 1093.597656 17.339844 Z M 1120.300781 44.046875 " fill-opacity="1" fill-rule="nonzero"/></g><g clip-path="url(#a7ebfc59ee)"><path fill="#a31eff" d="M 674.078125 31.886719 L 394.488281 31.886719 L 346.667969 79.707031 L 346.667969 645.832031 L 345.3125 644.472656 L 333.316406 632.425781 L 331.960938 631.066406 L 331.960938 183.976562 L 319.421875 171.4375 L 319.421875 44.046875 L 346.289062 17.175781 L 659.261719 17.175781 Z M 674.078125 31.886719 " fill-opacity="1" fill-rule="nonzero"/></g><g clip-path="url(#51b2a7ebe0)"><path stroke-linecap="butt" transform="matrix(5.427856, 0, 0, 5.427856, 319.422031, 17.177128)" fill="none" stroke-linejoin="miter" d="M 82.499741 2.589834 L 82.450084 2.640211 " stroke="#69f8fb" stroke-width="0.25" stroke-opacity="1" stroke-miterlimit="10"/></g><g clip-path="url(#00cfd1e34e)"><path fill="#a31eff" d="M 967.617188 792.925781 L 472.054688 792.925781 L 473.410156 791.570312 L 486.871094 778.21875 L 952.796875 778.21875 L 966.257812 791.570312 Z M 967.617188 792.925781 " fill-opacity="1" fill-rule="nonzero"/></g><path fill="#ffffff" d="M 1046.320312 780.929688 L 393.347656 780.929688 L 343.957031 731.539062 L 343.957031 78.566406 L 393.347656 29.171875 L 1046.265625 29.171875 L 1095.660156 78.566406 L 1095.660156 731.484375 Z M 395.03125 776.859375 L 1044.582031 776.859375 L 1091.589844 729.855469 L 1091.589844 80.25 L 1044.582031 33.242188 L 395.03125 33.242188 L 348.027344 80.25 L 348.027344 729.855469 Z M 395.03125 776.859375 " fill-opacity="1" fill-rule="nonzero"/></svg>