<svg xmlns="http://www.w3.org/2000/svg" xmlns:xlink="http://www.w3.org/1999/xlink" viewBox="32 304 1376 204" version="1.0">
  <defs>
    <linearGradient id="circuit-flow" x1="0%" y1="0%" x2="200%" y2="0%">
      <stop offset="0%" stop-color="#a31eff" />
      <stop offset="50%" stop-color="#d8b4fe" /> 
      <stop offset="100%" stop-color="#a31eff" />
      <animate attributeName="x1" from="-100%" to="100%" dur="3s" repeatCount="indefinite" />
      <animate attributeName="x2" from="0%" to="200%" dur="3s" repeatCount="indefinite" />
    </linearGradient>

    <filter x="0%" y="0%" width="100%" height="100%" id="5157700aea">
      <feColorMatrix values="0 0 0 0 1 0 0 0 0 1 0 0 0 0 1 0 0 0 1 0" color-interpolation-filters="sRGB"/>
    </filter>
    <mask id="3e93c25e30">
      <g filter="url(#5157700aea)">
        <rect x="-144" width="1728" fill="#000000" y="-80.999999" height="971.999992" fill-opacity="0.54"/>
      </g>
    </mask>
    <clipPath id="b15efddcba">
      <path d="M 0.878906 0.132812 L 1375.121094 0.132812 L 1375.121094 201.882812 L 0.878906 201.882812 Z M 0.878906 0.132812 " clip-rule="nonzero"/>
    </clipPath>
    <clipPath id="8dec2f4ffa">
      <rect x="0" width="1376" y="0" height="204"/>
    </clipPath>
  </defs>

  <g mask="url(#3e93c25e30)">
    <g transform="matrix(1, 0, 0, 1, 32, 304)">
      <g clip-path="url(#8dec2f4ffa)">
        <g clip-path="url(#b15efddcba)">
          <path 
            fill="url(#circuit-flow)" 
            d="M 274.183594 176.929688 L 298.753906 152.359375 L 27.6875 152.359375 C 26.367188 158.460938 20.953125 163.050781 14.441406 163.050781 C 6.964844 163.050781 0.917969 156.976562 0.917969 149.503906 C 0.917969 142.054688 6.964844 135.980469 14.441406 135.980469 C 20.953125 135.980469 26.367188 140.570312 27.6875 146.671875 L 304.441406 146.671875 L 376.667969 74.472656 L 378.675781 73.648438 L 597.027344 73.648438 L 598.429688 74.035156 L 677.085938 119.4375 L 815.847656 119.4375 L 994.105469 16.511719 L 849.875 16.511719 L 752.886719 72.496094 C 753.296875 73.8125 753.542969 75.214844 753.542969 76.644531 C 753.542969 84.121094 747.472656 90.167969 740.023438 90.167969 C 732.546875 90.167969 726.472656 84.121094 726.472656 76.644531 C 726.472656 69.167969 732.546875 63.121094 740.023438 63.121094 C 743.980469 63.121094 747.582031 64.855469 750.054688 67.574219 L 847.703125 11.207031 L 849.105469 10.824219 L 1348.308594 10.824219 C 1349.628906 4.722656 1355.042969 0.132812 1361.554688 0.132812 C 1369.03125 0.132812 1375.078125 6.175781 1375.078125 13.652344 C 1375.078125 21.128906 1369.03125 27.175781 1361.554688 27.175781 C 1355.042969 27.175781 1349.628906 22.613281 1348.308594 16.511719 L 1005.457031 16.511719 L 921.246094 65.128906 L 1227.847656 65.128906 C 1229.167969 59.027344 1234.582031 54.4375 1241.097656 54.4375 C 1248.570312 54.4375 1254.617188 60.511719 1254.617188 67.960938 C 1254.617188 75.433594 1248.570312 81.507812 1241.097656 81.507812 C 1234.609375 81.507812 1229.167969 76.917969 1227.847656 70.816406 L 911.378906 70.816406 L 818.019531 124.738281 L 816.589844 125.125 L 686.953125 125.125 L 758.765625 166.597656 L 1037.554688 166.597656 C 1038.875 160.496094 1044.289062 155.90625 1050.804688 155.90625 C 1058.277344 155.90625 1064.324219 161.953125 1064.324219 169.429688 C 1064.324219 176.902344 1058.277344 182.949219 1050.804688 182.949219 C 1044.289062 182.949219 1038.875 178.386719 1037.554688 172.285156 L 758.023438 172.285156 L 756.59375 171.902344 L 674.941406 124.738281 L 644.050781 106.902344 L 501.085938 106.902344 L 584.054688 154.808594 C 586.53125 152.058594 590.101562 150.355469 594.085938 150.355469 C 601.5625 150.355469 607.609375 156.402344 607.609375 163.875 C 607.609375 171.351562 601.5625 177.398438 594.085938 177.398438 C 586.613281 177.398438 580.566406 171.351562 580.566406 163.875 C 580.566406 162.417969 580.785156 161.019531 581.199219 159.726562 L 489.734375 106.902344 L 352.261719 106.902344 L 278.222656 180.941406 C 279.570312 183.058594 280.367188 185.589844 280.367188 188.308594 C 280.367188 195.757812 274.320312 201.832031 266.84375 201.832031 C 259.371094 201.832031 253.324219 195.757812 253.324219 188.308594 C 253.324219 180.832031 259.371094 174.757812 266.84375 174.757812 C 269.566406 174.757812 272.066406 175.554688 274.183594 176.929688 Z M 634.183594 101.214844 L 596.285156 79.335938 L 379.855469 79.335938 L 357.953125 101.214844 Z M 634.183594 101.214844 " 
            fill-opacity="1" 
            fill-rule="nonzero"
          />
        </g>
      </g>
    </g>
  </g>
</svg>