<svg xmlns="http://www.w3.org/2000/svg" xmlns:xlink="http://www.w3.org/1999/xlink" width="1920" zoomAndPan="magnify" viewBox="0 0 1440 809.999993" height="1080" preserveAspectRatio="xMidYMid meet" version="1.0"><defs><filter x="0%" y="0%" width="100%" height="100%" id="8901643f6c"><feColorMatrix values="0 0 0 0 1 0 0 0 0 1 0 0 0 0 1 0 0 0 1 0" color-interpolation-filters="sRGB"/></filter><clipPath id="a0b26bc76a"><rect x="0" width="1309" y="0" height="721"/></clipPath><clipPath id="f03789e44d"><path d="M 1379 321 L 1400.886719 321 L 1400.886719 357 L 1379 357 Z M 1379 321 " clip-rule="nonzero"/></clipPath><clipPath id="1cf1b45642"><path d="M 1379 302 L 1400.886719 302 L 1400.886719 338 L 1379 338 Z M 1379 302 " clip-rule="nonzero"/></clipPath><clipPath id="2301a64f97"><path d="M 1379 283 L 1400.886719 283 L 1400.886719 319 L 1379 319 Z M 1379 283 " clip-rule="nonzero"/></clipPath><clipPath id="c368207f76"><path d="M 1379 264 L 1400.886719 264 L 1400.886719 301 L 1379 301 Z M 1379 264 " clip-rule="nonzero"/></clipPath><clipPath id="c0bef97809"><path d="M 1379 245 L 1400.886719 245 L 1400.886719 281 L 1379 281 Z M 1379 245 " clip-rule="nonzero"/></clipPath><clipPath id="2ddde8b130"><path d="M 1379 226 L 1400.886719 226 L 1400.886719 262 L 1379 262 Z M 1379 226 " clip-rule="nonzero"/></clipPath><clipPath id="37f297d7b1"><path d="M 38.886719 18.183594 L 1400.886719 18.183594 L 1400.886719 792 L 38.886719 792 Z M 38.886719 18.183594 " clip-rule="nonzero"/></clipPath><clipPath id="303e72b919"><path d="M 402 18.183594 L 434 18.183594 L 434 32 L 402 32 Z M 402 18.183594 " clip-rule="nonzero"/></clipPath><clipPath id="9794c85399"><path d="M 427 18.183594 L 459 18.183594 L 459 32 L 427 32 Z M 427 18.183594 " clip-rule="nonzero"/></clipPath><clipPath id="f29bd3e46d"><path d="M 451 18.183594 L 484 18.183594 L 484 32 L 451 32 Z M 451 18.183594 " clip-rule="nonzero"/></clipPath><clipPath id="9498c25337"><path d="M 476 18.183594 L 509 18.183594 L 509 32 L 476 32 Z M 476 18.183594 " clip-rule="nonzero"/></clipPath><clipPath id="9d85a6c596"><path d="M 501 18.183594 L 534 18.183594 L 534 32 L 501 32 Z M 501 18.183594 " clip-rule="nonzero"/></clipPath><clipPath id="9e695eb28a"><path d="M 526 18.183594 L 559 18.183594 L 559 32 L 526 32 Z M 526 18.183594 " clip-rule="nonzero"/></clipPath></defs><g><g transform="matrix(1, 0, 0, 1, 66, 45)"><g clip-path="url(#a0b26bc76a)"><path fill="#211629" d="M 1107.730469 718.050781 L 1257.582031 718.050781 L 1306.550781 669.152344 L 1306.550781 495.808594 L 1282.441406 471.769531 L 1282.441406 151.519531 L 1306.550781 127.414062 L 1306.550781 37.625 L 1270.59375 1.667969 L 695.503906 1.667969 L 670.574219 26.597656 L 329.230469 26.597656 L 304.230469 1.667969 L 129.929688 1.667969 L 40.28125 91.320312 L 40.28125 573.953125 L 1.171875 613.058594 L 1.171875 665.382812 L 53.910156 718.050781 L 469.699219 718.050781 L 494.148438 693.601562 L 755.496094 693.601562 L 780.839844 668.261719 L 1057.941406 668.261719 Z M 1107.730469 718.050781 " fill-opacity="1" fill-rule="nonzero"/></g></g></g><path fill="#d598ff" d="M 906.011719 761.546875 L 876.21875 791.335938 L 843.207031 791.335938 L 873 761.546875 Z M 906.011719 761.546875 " fill-opacity="1" fill-rule="nonzero"/><path fill="#d598ff" d="M 951.761719 761.546875 L 921.96875 791.335938 L 888.957031 791.335938 L 918.75 761.546875 Z M 951.761719 761.546875 " fill-opacity="1" fill-rule="nonzero"/><path fill="#d598ff" d="M 997.511719 761.546875 L 967.71875 791.335938 L 934.707031 791.335938 L 964.5 761.546875 Z M 997.511719 761.546875 " fill-opacity="1" fill-rule="nonzero"/><path fill="#d598ff" d="M 1043.191406 761.546875 L 1013.46875 791.335938 L 980.457031 791.335938 L 1010.183594 761.546875 Z M 1043.191406 761.546875 " fill-opacity="1" fill-rule="nonzero"/><path fill="#d598ff" d="M 1088.941406 761.546875 L 1059.152344 791.335938 L 1026.140625 791.335938 L 1055.929688 761.546875 Z M 1088.941406 761.546875 " fill-opacity="1" fill-rule="nonzero"/><g clip-path="url(#f03789e44d)"><path fill="#d598ff" d="M 1400.835938 342.261719 L 1379.808594 321.238281 L 1379.808594 335.960938 L 1400.835938 356.988281 Z M 1400.835938 342.261719 " fill-opacity="1" fill-rule="nonzero"/></g><g clip-path="url(#1cf1b45642)"><path fill="#d598ff" d="M 1400.835938 323.222656 L 1379.808594 302.265625 L 1379.808594 316.992188 L 1400.835938 337.949219 Z M 1400.835938 323.222656 " fill-opacity="1" fill-rule="nonzero"/></g><g clip-path="url(#2301a64f97)"><path fill="#d598ff" d="M 1400.835938 304.25 L 1379.808594 283.226562 L 1379.808594 297.949219 L 1400.835938 318.976562 Z M 1400.835938 304.25 " fill-opacity="1" fill-rule="nonzero"/></g><g clip-path="url(#c368207f76)"><path fill="#d598ff" d="M 1400.835938 285.210938 L 1379.808594 264.253906 L 1379.808594 278.980469 L 1400.835938 300.003906 Z M 1400.835938 285.210938 " fill-opacity="1" fill-rule="nonzero"/></g><g clip-path="url(#c0bef97809)"><path fill="#d598ff" d="M 1400.835938 266.242188 L 1379.808594 245.214844 L 1379.808594 260.007812 L 1400.835938 280.964844 Z M 1400.835938 266.242188 " fill-opacity="1" fill-rule="nonzero"/></g><g clip-path="url(#2ddde8b130)"><path fill="#d598ff" d="M 1400.835938 247.203125 L 1379.808594 226.246094 L 1379.808594 240.96875 L 1400.835938 261.996094 Z M 1400.835938 247.203125 " fill-opacity="1" fill-rule="nonzero"/></g><path fill="#d598ff" d="M 71.078125 568.273438 L 71.078125 604.089844 L 39.160156 636.007812 L 39.160156 600.257812 Z M 71.078125 568.273438 " fill-opacity="1" fill-rule="nonzero"/><path fill="#d598ff" d="M 71.078125 522.453125 L 71.078125 558.273438 L 39.160156 590.1875 L 39.160156 554.4375 Z M 71.078125 522.453125 " fill-opacity="1" fill-rule="nonzero"/><path fill="#d598ff" d="M 71.078125 476.566406 L 71.078125 512.386719 L 39.160156 544.300781 L 39.160156 508.550781 Z M 71.078125 476.566406 " fill-opacity="1" fill-rule="nonzero"/><path fill="#d598ff" d="M 71.078125 430.75 L 71.078125 466.566406 L 39.160156 498.484375 L 39.160156 462.734375 Z M 71.078125 430.75 " fill-opacity="1" fill-rule="nonzero"/><g clip-path="url(#37f297d7b1)"><path fill="#d598ff" d="M 1400.5625 184.398438 L 1400.835938 184.125 L 1400.835938 70.914062 L 1348.511719 18.65625 L 1348.304688 18.382812 L 719.519531 18.382812 L 701.988281 35.847656 L 412.832031 35.847656 L 395.367188 18.382812 L 184.21875 18.382812 L 55.117188 147.484375 L 55.050781 325.960938 L 77.992188 348.972656 L 77.992188 607.242188 L 38.886719 646.347656 L 38.886719 722.097656 L 107.921875 791.0625 L 108.195312 791.335938 L 830.539062 791.335938 L 867.382812 754.492188 L 1125.242188 754.492188 L 1162.019531 791.335938 L 1335.292969 791.335938 L 1400.835938 725.863281 L 1400.835938 361.234375 L 1376.660156 337.058594 L 1376.660156 208.230469 Z M 1399.125 529.78125 L 1399.125 622.035156 L 1391.246094 629.910156 L 1391.246094 721.34375 L 1330.703125 781.886719 L 1237.699219 781.886719 L 1229.960938 789.625 L 1162.703125 789.625 L 1112.914062 739.765625 L 857.863281 739.765625 L 832.523438 765.175781 L 571.175781 765.175781 L 546.726562 789.625 L 108.882812 789.625 L 40.601562 721.410156 L 40.601562 647.035156 L 79.5 608.199219 L 79.707031 607.925781 L 79.707031 125.292969 L 184.902344 20.097656 L 381.191406 20.097656 L 406.1875 45.027344 L 725.546875 45.027344 L 750.476562 20.097656 L 1347.621094 20.097656 L 1399.125 71.597656 L 1399.125 183.4375 L 1375.222656 207.273438 L 1374.949219 207.546875 L 1374.949219 505.742188 Z M 1399.125 529.78125 " fill-opacity="1" fill-rule="nonzero"/></g><g clip-path="url(#303e72b919)"><path fill="#d598ff" d="M 433.652344 31.738281 L 415.570312 31.738281 L 402.214844 18.382812 L 420.296875 18.382812 Z M 433.652344 31.738281 " fill-opacity="1" fill-rule="nonzero"/></g><g clip-path="url(#9794c85399)"><path fill="#d598ff" d="M 458.582031 31.738281 L 440.5 31.738281 L 427.078125 18.382812 L 445.15625 18.382812 Z M 458.582031 31.738281 " fill-opacity="1" fill-rule="nonzero"/></g><g clip-path="url(#f29bd3e46d)"><path fill="#d598ff" d="M 483.441406 31.738281 L 465.359375 31.738281 L 451.9375 18.382812 L 470.019531 18.382812 Z M 483.441406 31.738281 " fill-opacity="1" fill-rule="nonzero"/></g><g clip-path="url(#9498c25337)"><path fill="#d598ff" d="M 508.304688 31.738281 L 490.222656 31.738281 L 476.796875 18.382812 L 494.878906 18.382812 Z M 508.304688 31.738281 " fill-opacity="1" fill-rule="nonzero"/></g><g clip-path="url(#9d85a6c596)"><path fill="#d598ff" d="M 533.164062 31.738281 L 515.082031 31.738281 L 501.660156 18.382812 L 519.742188 18.382812 Z M 533.164062 31.738281 " fill-opacity="1" fill-rule="nonzero"/></g><g clip-path="url(#9e695eb28a)"><path fill="#d598ff" d="M 558.023438 31.738281 L 539.945312 31.738281 L 526.519531 18.382812 L 544.601562 18.382812 Z M 558.023438 31.738281 " fill-opacity="1" fill-rule="nonzero"/></g></svg>