<svg xmlns="http://www.w3.org/2000/svg" xmlns:xlink="http://www.w3.org/1999/xlink" width="1920" zoomAndPan="magnify" viewBox="0 0 1440 809.999993" height="1080" preserveAspectRatio="xMidYMid meet" version="1.0"><defs><filter x="0%" y="0%" width="100%" height="100%" id="e35746ed1f"><feColorMatrix values="0 0 0 0 1 0 0 0 0 1 0 0 0 0 1 0 0 0 1 0" color-interpolation-filters="sRGB"/></filter><clipPath id="49dc21751f"><path d="M 1165 220.246094 L 1181 220.246094 L 1181 225 L 1165 225 Z M 1165 220.246094 " clip-rule="nonzero"/></clipPath><clipPath id="c99df7918f"><path d="M 1182 220.246094 L 1199 220.246094 L 1199 225 L 1182 225 Z M 1182 220.246094 " clip-rule="nonzero"/></clipPath><clipPath id="5b9c312d20"><path d="M 1200 220.246094 L 1217 220.246094 L 1217 225 L 1200 225 Z M 1200 220.246094 " clip-rule="nonzero"/></clipPath><clipPath id="2ef622de3a"><path d="M 1218 220.246094 L 1234 220.246094 L 1234 225 L 1218 225 Z M 1218 220.246094 " clip-rule="nonzero"/></clipPath><clipPath id="4241ef674d"><path d="M 1236 220.246094 L 1252 220.246094 L 1252 225 L 1236 225 Z M 1236 220.246094 " clip-rule="nonzero"/></clipPath><clipPath id="e2f483e3d9"><path d="M 1254 220.246094 L 1270 220.246094 L 1270 225 L 1254 225 Z M 1254 220.246094 " clip-rule="nonzero"/></clipPath><clipPath id="1e468945e7"><path d="M 1272 220.246094 L 1288 220.246094 L 1288 225 L 1272 225 Z M 1272 220.246094 " clip-rule="nonzero"/></clipPath><clipPath id="95092653f7"><path d="M 1289 220.246094 L 1306 220.246094 L 1306 225 L 1289 225 Z M 1289 220.246094 " clip-rule="nonzero"/></clipPath><clipPath id="29ebe616ef"><path d="M 1307 220.246094 L 1323 220.246094 L 1323 225 L 1307 225 Z M 1307 220.246094 " clip-rule="nonzero"/></clipPath><clipPath id="d5a891519e"><path d="M 259 220.246094 L 275 220.246094 L 275 225 L 259 225 Z M 259 220.246094 " clip-rule="nonzero"/></clipPath><clipPath id="64f4fbc2db"><path d="M 241 220.246094 L 257 220.246094 L 257 225 L 241 225 Z M 241 220.246094 " clip-rule="nonzero"/></clipPath><clipPath id="d309363ef8"><path d="M 223 220.246094 L 240 220.246094 L 240 225 L 223 225 Z M 223 220.246094 " clip-rule="nonzero"/></clipPath><clipPath id="fdf1e978ea"><path d="M 205 220.246094 L 222 220.246094 L 222 225 L 205 225 Z M 205 220.246094 " clip-rule="nonzero"/></clipPath><clipPath id="4261e000d7"><path d="M 188 220.246094 L 204 220.246094 L 204 225 L 188 225 Z M 188 220.246094 " clip-rule="nonzero"/></clipPath><clipPath id="e256aebb80"><path d="M 170 220.246094 L 186 220.246094 L 186 225 L 170 225 Z M 170 220.246094 " clip-rule="nonzero"/></clipPath><clipPath id="0648c8e62a"><path d="M 152 220.246094 L 168 220.246094 L 168 225 L 152 225 Z M 152 220.246094 " clip-rule="nonzero"/></clipPath><clipPath id="c5dd6740c6"><path d="M 134 220.246094 L 150 220.246094 L 150 225 L 134 225 Z M 134 220.246094 " clip-rule="nonzero"/></clipPath><clipPath id="9096684b9b"><path d="M 116 220.246094 L 133 220.246094 L 133 225 L 116 225 Z M 116 220.246094 " clip-rule="nonzero"/></clipPath><clipPath id="595382244c"><path d="M 1165 584 L 1181 584 L 1181 589.996094 L 1165 589.996094 Z M 1165 584 " clip-rule="nonzero"/></clipPath><clipPath id="f985dd9f06"><path d="M 1182 584 L 1199 584 L 1199 589.996094 L 1182 589.996094 Z M 1182 584 " clip-rule="nonzero"/></clipPath><clipPath id="19ce085df9"><path d="M 1200 584 L 1217 584 L 1217 589.996094 L 1200 589.996094 Z M 1200 584 " clip-rule="nonzero"/></clipPath><clipPath id="9a6001d11c"><path d="M 1218 584 L 1234 584 L 1234 589.996094 L 1218 589.996094 Z M 1218 584 " clip-rule="nonzero"/></clipPath><clipPath id="012010a843"><path d="M 1236 584 L 1252 584 L 1252 589.996094 L 1236 589.996094 Z M 1236 584 " clip-rule="nonzero"/></clipPath><clipPath id="922e7a82e3"><path d="M 1254 584 L 1270 584 L 1270 589.996094 L 1254 589.996094 Z M 1254 584 " clip-rule="nonzero"/></clipPath><clipPath id="4c71294a17"><path d="M 1272 584 L 1288 584 L 1288 589.996094 L 1272 589.996094 Z M 1272 584 " clip-rule="nonzero"/></clipPath><clipPath id="ce2caa6c71"><path d="M 1289 584 L 1306 584 L 1306 589.996094 L 1289 589.996094 Z M 1289 584 " clip-rule="nonzero"/></clipPath><clipPath id="6b3faf2b85"><path d="M 1307 584 L 1323 584 L 1323 589.996094 L 1307 589.996094 Z M 1307 584 " clip-rule="nonzero"/></clipPath><clipPath id="5419df723b"><path d="M 731 220.246094 L 1409 220.246094 L 1409 589.996094 L 731 589.996094 Z M 731 220.246094 " clip-rule="nonzero"/></clipPath><clipPath id="d03dcb35d7"><path d="M 259 584 L 275 584 L 275 589.996094 L 259 589.996094 Z M 259 584 " clip-rule="nonzero"/></clipPath><clipPath id="0b3af52d07"><path d="M 241 584 L 257 584 L 257 589.996094 L 241 589.996094 Z M 241 584 " clip-rule="nonzero"/></clipPath><clipPath id="cd4bc494c9"><path d="M 223 584 L 240 584 L 240 589.996094 L 223 589.996094 Z M 223 584 " clip-rule="nonzero"/></clipPath><clipPath id="f50dfe9367"><path d="M 205 584 L 222 584 L 222 589.996094 L 205 589.996094 Z M 205 584 " clip-rule="nonzero"/></clipPath><clipPath id="da7a637c62"><path d="M 188 584 L 204 584 L 204 589.996094 L 188 589.996094 Z M 188 584 " clip-rule="nonzero"/></clipPath><clipPath id="161df25173"><path d="M 170 584 L 186 584 L 186 589.996094 L 170 589.996094 Z M 170 584 " clip-rule="nonzero"/></clipPath><clipPath id="828ab0b7cb"><path d="M 152 584 L 168 584 L 168 589.996094 L 152 589.996094 Z M 152 584 " clip-rule="nonzero"/></clipPath><clipPath id="545d46c5e9"><path d="M 134 584 L 150 584 L 150 589.996094 L 134 589.996094 Z M 134 584 " clip-rule="nonzero"/></clipPath><clipPath id="ea8254f6ff"><path d="M 116 584 L 133 584 L 133 589.996094 L 116 589.996094 Z M 116 584 " clip-rule="nonzero"/></clipPath><clipPath id="f2af041cd9"><path d="M 31 220.246094 L 709 220.246094 L 709 589.996094 L 31 589.996094 Z M 31 220.246094 " clip-rule="nonzero"/></clipPath><mask id="1d4e7a36b2"><g filter="url(#e35746ed1f)"><rect x="-144" width="1728" fill="#000000" y="-80.999999" height="971.999992" fill-opacity="0.1"/></g></mask><clipPath id="bcc2b7690f"><rect x="0" width="1341" y="0" height="340"/></clipPath></defs><g clip-path="url(#49dc21751f)"><path fill="#e4bcff" d="M 1180.480469 224.664062 L 1169.4375 224.664062 L 1165.167969 220.246094 L 1176.210938 220.246094 Z M 1180.480469 224.664062 " fill-opacity="1" fill-rule="nonzero"/></g><g clip-path="url(#c99df7918f)"><path fill="#e4bcff" d="M 1198.292969 224.664062 L 1187.25 224.664062 L 1182.980469 220.246094 L 1194.023438 220.246094 Z M 1198.292969 224.664062 " fill-opacity="1" fill-rule="nonzero"/></g><g clip-path="url(#5b9c312d20)"><path fill="#e4bcff" d="M 1216.105469 224.664062 L 1205.0625 224.664062 L 1200.796875 220.246094 L 1211.835938 220.246094 Z M 1216.105469 224.664062 " fill-opacity="1" fill-rule="nonzero"/></g><g clip-path="url(#2ef622de3a)"><path fill="#e4bcff" d="M 1233.917969 224.664062 L 1222.875 224.664062 L 1218.609375 220.246094 L 1229.648438 220.246094 Z M 1233.917969 224.664062 " fill-opacity="1" fill-rule="nonzero"/></g><g clip-path="url(#4241ef674d)"><path fill="#e4bcff" d="M 1251.730469 224.664062 L 1240.691406 224.664062 L 1236.421875 220.246094 L 1247.460938 220.246094 Z M 1251.730469 224.664062 " fill-opacity="1" fill-rule="nonzero"/></g><g clip-path="url(#e2f483e3d9)"><path fill="#e4bcff" d="M 1269.542969 224.664062 L 1258.503906 224.664062 L 1254.234375 220.246094 L 1265.273438 220.246094 Z M 1269.542969 224.664062 " fill-opacity="1" fill-rule="nonzero"/></g><g clip-path="url(#1e468945e7)"><path fill="#e4bcff" d="M 1287.355469 224.664062 L 1276.316406 224.664062 L 1272.046875 220.246094 L 1283.085938 220.246094 Z M 1287.355469 224.664062 " fill-opacity="1" fill-rule="nonzero"/></g><g clip-path="url(#95092653f7)"><path fill="#e4bcff" d="M 1305.167969 224.664062 L 1294.128906 224.664062 L 1289.859375 220.246094 L 1300.898438 220.246094 Z M 1305.167969 224.664062 " fill-opacity="1" fill-rule="nonzero"/></g><g clip-path="url(#29ebe616ef)"><path fill="#e4bcff" d="M 1322.980469 224.664062 L 1311.941406 224.664062 L 1307.671875 220.246094 L 1318.710938 220.246094 Z M 1322.980469 224.664062 " fill-opacity="1" fill-rule="nonzero"/></g><path fill="#e4bcff" d="M 730.007812 229.667969 L 730.007812 230.550781 L 728.683594 231.875 L 711.164062 231.875 L 709.839844 230.550781 L 709.839844 229.667969 L 711.164062 228.34375 L 728.683594 228.34375 Z M 730.007812 229.667969 " fill-opacity="1" fill-rule="nonzero"/><g clip-path="url(#d5a891519e)"><path fill="#e4bcff" d="M 259.371094 224.664062 L 270.410156 224.664062 L 274.679688 220.246094 L 263.640625 220.246094 Z M 259.371094 224.664062 " fill-opacity="1" fill-rule="nonzero"/></g><g clip-path="url(#64f4fbc2db)"><path fill="#e4bcff" d="M 241.558594 224.664062 L 252.597656 224.664062 L 256.867188 220.246094 L 245.828125 220.246094 Z M 241.558594 224.664062 " fill-opacity="1" fill-rule="nonzero"/></g><g clip-path="url(#d309363ef8)"><path fill="#e4bcff" d="M 223.746094 224.664062 L 234.785156 224.664062 L 239.054688 220.246094 L 228.011719 220.246094 Z M 223.746094 224.664062 " fill-opacity="1" fill-rule="nonzero"/></g><g clip-path="url(#fdf1e978ea)"><path fill="#e4bcff" d="M 205.929688 224.664062 L 216.972656 224.664062 L 221.242188 220.246094 L 210.199219 220.246094 Z M 205.929688 224.664062 " fill-opacity="1" fill-rule="nonzero"/></g><g clip-path="url(#4261e000d7)"><path fill="#e4bcff" d="M 188.117188 224.664062 L 199.160156 224.664062 L 203.429688 220.246094 L 192.386719 220.246094 Z M 188.117188 224.664062 " fill-opacity="1" fill-rule="nonzero"/></g><g clip-path="url(#e256aebb80)"><path fill="#e4bcff" d="M 170.304688 224.664062 L 181.347656 224.664062 L 185.617188 220.246094 L 174.574219 220.246094 Z M 170.304688 224.664062 " fill-opacity="1" fill-rule="nonzero"/></g><g clip-path="url(#0648c8e62a)"><path fill="#e4bcff" d="M 152.492188 224.664062 L 163.535156 224.664062 L 167.804688 220.246094 L 156.761719 220.246094 Z M 152.492188 224.664062 " fill-opacity="1" fill-rule="nonzero"/></g><g clip-path="url(#c5dd6740c6)"><path fill="#e4bcff" d="M 134.679688 224.664062 L 145.722656 224.664062 L 149.992188 220.246094 L 138.949219 220.246094 Z M 134.679688 224.664062 " fill-opacity="1" fill-rule="nonzero"/></g><g clip-path="url(#9096684b9b)"><path fill="#e4bcff" d="M 116.867188 224.664062 L 127.910156 224.664062 L 132.179688 220.246094 L 121.136719 220.246094 Z M 116.867188 224.664062 " fill-opacity="1" fill-rule="nonzero"/></g><g clip-path="url(#595382244c)"><path fill="#e4bcff" d="M 1180.480469 584.746094 L 1169.4375 584.746094 L 1165.167969 589.160156 L 1176.210938 589.160156 Z M 1180.480469 584.746094 " fill-opacity="1" fill-rule="nonzero"/></g><g clip-path="url(#f985dd9f06)"><path fill="#e4bcff" d="M 1198.292969 584.746094 L 1187.25 584.746094 L 1182.980469 589.160156 L 1194.023438 589.160156 Z M 1198.292969 584.746094 " fill-opacity="1" fill-rule="nonzero"/></g><g clip-path="url(#19ce085df9)"><path fill="#e4bcff" d="M 1216.105469 584.746094 L 1205.0625 584.746094 L 1200.796875 589.160156 L 1211.835938 589.160156 Z M 1216.105469 584.746094 " fill-opacity="1" fill-rule="nonzero"/></g><g clip-path="url(#9a6001d11c)"><path fill="#e4bcff" d="M 1233.917969 584.746094 L 1222.875 584.746094 L 1218.609375 589.160156 L 1229.648438 589.160156 Z M 1233.917969 584.746094 " fill-opacity="1" fill-rule="nonzero"/></g><g clip-path="url(#012010a843)"><path fill="#e4bcff" d="M 1251.730469 584.746094 L 1240.691406 584.746094 L 1236.421875 589.160156 L 1247.460938 589.160156 Z M 1251.730469 584.746094 " fill-opacity="1" fill-rule="nonzero"/></g><g clip-path="url(#922e7a82e3)"><path fill="#e4bcff" d="M 1269.542969 584.746094 L 1258.503906 584.746094 L 1254.234375 589.160156 L 1265.273438 589.160156 Z M 1269.542969 584.746094 " fill-opacity="1" fill-rule="nonzero"/></g><g clip-path="url(#4c71294a17)"><path fill="#e4bcff" d="M 1287.355469 584.746094 L 1276.316406 584.746094 L 1272.046875 589.160156 L 1283.085938 589.160156 Z M 1287.355469 584.746094 " fill-opacity="1" fill-rule="nonzero"/></g><g clip-path="url(#ce2caa6c71)"><path fill="#e4bcff" d="M 1305.167969 584.746094 L 1294.128906 584.746094 L 1289.859375 589.160156 L 1300.898438 589.160156 Z M 1305.167969 584.746094 " fill-opacity="1" fill-rule="nonzero"/></g><g clip-path="url(#6b3faf2b85)"><path fill="#e4bcff" d="M 1322.980469 584.746094 L 1311.941406 584.746094 L 1307.671875 589.160156 L 1318.710938 589.160156 Z M 1322.980469 584.746094 " fill-opacity="1" fill-rule="nonzero"/></g><g clip-path="url(#5419df723b)"><path fill="#e4bcff" d="M 1408.804688 404.703125 L 1399.238281 414.421875 L 1399.238281 508.929688 L 1327.105469 581.066406 L 1166.496094 581.066406 L 1158.398438 589.160156 L 998.964844 589.160156 L 990.871094 581.066406 L 731.1875 581.066406 L 732.070312 580.179688 L 732.070312 578.414062 L 731.1875 577.53125 L 1298.398438 577.53125 L 1307.671875 568.257812 L 1326.074219 568.257812 L 1383.042969 511.285156 L 1383.042969 492.882812 L 1395.558594 480.222656 L 1395.558594 329.183594 L 1383.042969 316.523438 L 1383.042969 298.121094 L 1326.074219 241.152344 L 1307.671875 241.152344 L 1298.398438 231.875 L 731.1875 231.875 L 732.070312 230.992188 L 732.070312 229.226562 L 731.1875 228.34375 L 990.871094 228.34375 L 998.964844 220.246094 L 1158.398438 220.246094 L 1166.496094 228.34375 L 1327.105469 228.34375 L 1399.238281 300.476562 L 1399.238281 394.988281 Z M 1408.804688 404.703125 " fill-opacity="1" fill-rule="nonzero"/></g><path fill="#e4bcff" d="M 730.007812 578.855469 L 730.007812 579.738281 L 728.683594 581.066406 L 711.164062 581.066406 L 709.839844 579.738281 L 709.839844 578.855469 L 711.164062 577.53125 L 728.683594 577.53125 Z M 730.007812 578.855469 " fill-opacity="1" fill-rule="nonzero"/><g clip-path="url(#d03dcb35d7)"><path fill="#e4bcff" d="M 259.371094 584.746094 L 270.410156 584.746094 L 274.679688 589.160156 L 263.640625 589.160156 Z M 259.371094 584.746094 " fill-opacity="1" fill-rule="nonzero"/></g><g clip-path="url(#0b3af52d07)"><path fill="#e4bcff" d="M 241.558594 584.746094 L 252.597656 584.746094 L 256.867188 589.160156 L 245.828125 589.160156 Z M 241.558594 584.746094 " fill-opacity="1" fill-rule="nonzero"/></g><g clip-path="url(#cd4bc494c9)"><path fill="#e4bcff" d="M 223.746094 584.746094 L 234.785156 584.746094 L 239.054688 589.160156 L 228.011719 589.160156 Z M 223.746094 584.746094 " fill-opacity="1" fill-rule="nonzero"/></g><g clip-path="url(#f50dfe9367)"><path fill="#e4bcff" d="M 205.929688 584.746094 L 216.972656 584.746094 L 221.242188 589.160156 L 210.199219 589.160156 Z M 205.929688 584.746094 " fill-opacity="1" fill-rule="nonzero"/></g><g clip-path="url(#da7a637c62)"><path fill="#e4bcff" d="M 188.117188 584.746094 L 199.160156 584.746094 L 203.429688 589.160156 L 192.386719 589.160156 Z M 188.117188 584.746094 " fill-opacity="1" fill-rule="nonzero"/></g><g clip-path="url(#161df25173)"><path fill="#e4bcff" d="M 170.304688 584.746094 L 181.347656 584.746094 L 185.617188 589.160156 L 174.574219 589.160156 Z M 170.304688 584.746094 " fill-opacity="1" fill-rule="nonzero"/></g><g clip-path="url(#828ab0b7cb)"><path fill="#e4bcff" d="M 152.492188 584.746094 L 163.535156 584.746094 L 167.804688 589.160156 L 156.761719 589.160156 Z M 152.492188 584.746094 " fill-opacity="1" fill-rule="nonzero"/></g><g clip-path="url(#545d46c5e9)"><path fill="#e4bcff" d="M 134.679688 584.746094 L 145.722656 584.746094 L 149.992188 589.160156 L 138.949219 589.160156 Z M 134.679688 584.746094 " fill-opacity="1" fill-rule="nonzero"/></g><g clip-path="url(#ea8254f6ff)"><path fill="#e4bcff" d="M 116.867188 584.746094 L 127.910156 584.746094 L 132.179688 589.160156 L 121.136719 589.160156 Z M 116.867188 584.746094 " fill-opacity="1" fill-rule="nonzero"/></g><g clip-path="url(#f2af041cd9)"><path fill="#e4bcff" d="M 44.292969 329.183594 L 44.292969 480.222656 L 56.804688 492.882812 L 56.804688 511.285156 L 113.777344 568.257812 L 132.179688 568.257812 L 141.453125 577.53125 L 708.808594 577.53125 L 707.925781 578.414062 L 707.925781 580.179688 L 708.808594 581.066406 L 448.980469 581.066406 L 440.882812 589.160156 L 281.453125 589.160156 L 273.355469 581.066406 L 112.746094 581.066406 L 40.613281 508.929688 L 40.613281 414.421875 L 31.042969 404.703125 L 40.613281 394.988281 L 40.613281 300.476562 L 112.746094 228.34375 L 273.355469 228.34375 L 281.453125 220.246094 L 440.882812 220.246094 L 448.980469 228.34375 L 708.808594 228.34375 L 707.925781 229.226562 L 707.925781 230.992188 L 708.808594 231.875 L 141.453125 231.875 L 132.179688 241.152344 L 113.777344 241.152344 L 56.804688 298.121094 L 56.804688 316.523438 Z M 44.292969 329.183594 " fill-opacity="1" fill-rule="nonzero"/></g><g mask="url(#1d4e7a36b2)"><g transform="matrix(1, 0, 0, 1, 45, 234)"><g clip-path="url(#bcc2b7690f)"><path fill="#e4bcff" d="M 102.488281 328.808594 L 1247.214844 328.808594 L 1256.488281 319.535156 L 1274.890625 319.535156 L 1323.175781 271.25 L 1323.175781 252.847656 L 1335.6875 240.1875 L 1335.6875 101.21875 L 1323.175781 88.558594 L 1323.175781 70.15625 L 1274.890625 21.871094 L 1256.488281 21.871094 L 1247.214844 12.597656 L 102.488281 12.597656 L 93.214844 21.871094 L 74.8125 21.871094 L 26.527344 70.15625 L 26.527344 88.558594 L 14.011719 101.21875 L 14.011719 240.1875 L 26.527344 252.847656 L 26.527344 271.25 L 74.8125 319.535156 L 93.214844 319.535156 Z M 102.488281 328.808594 " fill-opacity="1" fill-rule="nonzero"/></g></g></g></svg>