<svg xmlns="http://www.w3.org/2000/svg" xmlns:xlink="http://www.w3.org/1999/xlink" width="500" zoomAndPan="magnify" viewBox="0 0 375 374.999991" height="500" preserveAspectRatio="xMidYMid meet" version="1.0"><defs><clipPath id="fc6f6221af"><path d="M 8.765625 8.765625 L 366.515625 8.765625 L 366.515625 366.515625 L 8.765625 366.515625 Z M 8.765625 8.765625 " clip-rule="nonzero"/></clipPath><clipPath id="f013d8af0d"><path d="M 131.25 131.25 L 243.75 131.25 L 243.75 243.75 L 131.25 243.75 Z M 131.25 131.25 " clip-rule="nonzero"/></clipPath><clipPath id="1afa9e7bfb"><path d="M 187.5 131.25 C 156.433594 131.25 131.25 156.433594 131.25 187.5 C 131.25 218.566406 156.433594 243.75 187.5 243.75 C 218.566406 243.75 243.75 218.566406 243.75 187.5 C 243.75 156.433594 218.566406 131.25 187.5 131.25 Z M 187.5 131.25 " clip-rule="nonzero"/></clipPath><clipPath id="8f18a8fe4d"><path d="M 0.25 0.25 L 112.75 0.25 L 112.75 112.75 L 0.25 112.75 Z M 0.25 0.25 " clip-rule="nonzero"/></clipPath><clipPath id="9ae183e82c"><path d="M 56.5 0.25 C 25.433594 0.25 0.25 25.433594 0.25 56.5 C 0.25 87.566406 25.433594 112.75 56.5 112.75 C 87.566406 112.75 112.75 87.566406 112.75 56.5 C 112.75 25.433594 87.566406 0.25 56.5 0.25 Z M 56.5 0.25 " clip-rule="nonzero"/></clipPath><clipPath id="6fef876397"><rect x="0" width="113" y="0" height="113"/></clipPath></defs><g clip-path="url(#fc6f6221af)"><path fill="#acacac" d="M 187.277344 35.832031 C 270.9375 35.832031 339.390625 103.835938 339.390625 187.5 C 339.390625 271.164062 270.9375 339.167969 187.277344 339.167969 C 103.613281 339.167969 35.609375 271.164062 35.609375 187.5 C 35.609375 103.835938 103.613281 35.832031 187.277344 35.832031 M 187.277344 8.988281 C 88.847656 8.988281 8.765625 88.625 8.765625 187.5 C 8.765625 286.375 88.847656 366.011719 187.277344 366.011719 C 285.703125 366.011719 366.234375 286.375 366.234375 187.5 C 366.234375 88.625 286.148438 8.988281 187.277344 8.988281 Z M 187.277344 8.988281 " fill-opacity="1" fill-rule="nonzero"/></g><path fill="#acacac" d="M 187.277344 86.835938 C 242.753906 86.835938 287.941406 132.023438 287.941406 187.5 C 287.941406 242.976562 242.753906 288.164062 187.277344 288.164062 C 131.796875 288.164062 87.058594 242.976562 87.058594 187.5 C 87.058594 132.023438 131.796875 86.835938 187.277344 86.835938 " fill-opacity="1" fill-rule="nonzero"/><g clip-path="url(#f013d8af0d)"><g clip-path="url(#1afa9e7bfb)"><g transform="matrix(1, 0, 0, 1, 131, 131)"><g clip-path="url(#6fef876397)"><g clip-path="url(#8f18a8fe4d)"><g clip-path="url(#9ae183e82c)"><path fill="#acacac" d="M 0.25 0.25 L 112.75 0.25 L 112.75 112.75 L 0.25 112.75 Z M 0.25 0.25 " fill-opacity="1" fill-rule="nonzero"/></g></g></g></g></g></g></svg>