<svg xmlns="http://www.w3.org/2000/svg" xmlns:xlink="http://www.w3.org/1999/xlink" width="1920" zoomAndPan="magnify" viewBox="0 0 1440 809.999993" height="1080" preserveAspectRatio="xMidYMid meet" version="1.0"><defs><filter x="0%" y="0%" width="100%" height="100%" id="bbf2452dcf"><feColorMatrix values="0 0 0 0 1 0 0 0 0 1 0 0 0 0 1 0 0 0 1 0" color-interpolation-filters="sRGB"/></filter><mask id="ba3ad21442"><g filter="url(#bbf2452dcf)"><rect x="-144" width="1728" fill="#000000" y="-80.999999" height="971.999992" fill-opacity="0.1"/></g></mask><clipPath id="b878cb54ce"><rect x="0" width="1383" y="0" height="321"/></clipPath></defs><path fill="#e7adff" d="M 234.269531 243.089844 L 231.339844 246.019531 L 98.90625 246.019531 L 96.160156 248.765625 L 76.023438 248.765625 L 81.699219 243.089844 Z M 234.269531 243.089844 " fill-opacity="1" fill-rule="nonzero"/><path fill="#e7adff" d="M 1414.765625 319.515625 L 1414.765625 396.304688 L 1412.109375 398.867188 L 1411.011719 397.769531 L 1411.011719 295.628906 L 1366.074219 250.78125 L 1210.664062 250.78125 L 1202.882812 243 L 889.777344 243 L 881.996094 250.78125 L 558.085938 250.78125 L 550.308594 243 L 237.199219 243 L 229.417969 250.78125 L 74.007812 250.78125 L 29.070312 295.628906 L 29.070312 397.769531 L 27.972656 398.867188 L 25.316406 396.304688 L 25.316406 319.515625 L 23.03125 321.804688 L 23.03125 488.011719 L 25.316406 490.300781 L 25.316406 413.511719 L 27.972656 410.949219 L 29.070312 412.046875 L 29.070312 514.191406 L 74.007812 559.039062 L 229.417969 559.039062 L 237.199219 566.816406 L 550.308594 566.816406 L 558.085938 559.039062 L 881.996094 559.039062 L 889.777344 566.816406 L 1202.882812 566.816406 L 1210.664062 559.039062 L 1366.074219 559.039062 L 1411.011719 514.191406 L 1411.011719 412.046875 L 1412.109375 410.949219 L 1414.765625 413.511719 L 1414.765625 490.300781 L 1417.054688 488.011719 L 1417.054688 321.804688 Z M 1408.722656 496.34375 L 1400.945312 504.03125 L 1400.945312 515.472656 L 1365.523438 550.890625 L 1354.082031 550.890625 L 1348.226562 556.75 L 1192.175781 556.75 L 1184.394531 564.527344 L 928.214844 564.527344 L 920.4375 556.75 L 519.648438 556.75 L 511.867188 564.527344 L 255.6875 564.527344 L 247.90625 556.75 L 91.855469 556.75 L 86 550.890625 L 74.558594 550.890625 L 39.136719 515.472656 L 39.136719 504.03125 L 31.359375 496.34375 L 31.359375 313.472656 L 39.136719 305.785156 L 39.136719 294.347656 L 74.558594 258.925781 L 86 258.925781 L 91.855469 253.066406 L 247.90625 253.066406 L 255.6875 245.289062 L 511.867188 245.289062 L 519.648438 253.066406 L 920.4375 253.066406 L 928.214844 245.289062 L 1184.394531 245.289062 L 1192.175781 253.066406 L 1348.226562 253.066406 L 1354.082031 258.925781 L 1365.523438 258.925781 L 1400.945312 294.347656 L 1400.945312 305.785156 L 1408.722656 313.472656 Z M 1408.722656 496.34375 " fill-opacity="1" fill-rule="nonzero"/><g mask="url(#ba3ad21442)"><g transform="matrix(1, 0, 0, 1, 32, 243)"><g clip-path="url(#b878cb54ce)"><path fill="#e7adff" d="M 897.679688 318.140625 L 1151.023438 318.140625 L 1158.800781 310.363281 L 1314.851562 310.363281 L 1320.710938 304.503906 L 1332.152344 304.503906 L 1365.558594 271.097656 L 1365.558594 259.65625 L 1373.339844 251.96875 L 1373.339844 71.9375 L 1365.558594 64.25 L 1365.558594 52.808594 L 1332.152344 19.402344 L 1320.710938 19.402344 L 1314.851562 13.546875 L 1158.800781 13.546875 L 1151.023438 5.765625 L 897.679688 5.765625 L 889.902344 13.546875 L 486.183594 13.546875 L 478.402344 5.765625 L 225.152344 5.765625 L 217.371094 13.546875 L 61.320312 13.546875 L 55.464844 19.402344 L 44.023438 19.402344 L 10.523438 52.808594 L 10.523438 64.25 L 2.746094 71.9375 L 2.746094 251.96875 L 10.523438 259.65625 L 10.523438 271.097656 L 43.929688 304.503906 L 55.371094 304.503906 L 61.230469 310.363281 L 217.28125 310.363281 L 225.058594 318.140625 L 478.402344 318.140625 L 486.183594 310.363281 L 889.808594 310.363281 Z M 897.679688 318.140625 " fill-opacity="1" fill-rule="nonzero"/></g></g></g><path fill="#e7adff" d="M 1205.90625 243.089844 L 1208.832031 246.019531 L 1341.269531 246.019531 L 1344.015625 248.765625 L 1364.152344 248.765625 L 1358.476562 243.089844 Z M 1205.90625 243.089844 " fill-opacity="1" fill-rule="nonzero"/><path fill="#e7adff" d="M 234.269531 566.816406 L 231.339844 563.886719 L 98.90625 563.886719 L 96.160156 561.140625 L 76.023438 561.140625 L 81.699219 566.816406 Z M 234.269531 566.816406 " fill-opacity="1" fill-rule="nonzero"/><path fill="#e7adff" d="M 1205.90625 566.816406 L 1208.832031 563.886719 L 1341.269531 563.886719 L 1344.015625 561.140625 L 1364.152344 561.140625 L 1358.476562 566.816406 Z M 1205.90625 566.816406 " fill-opacity="1" fill-rule="nonzero"/></svg>