<svg xmlns="http://www.w3.org/2000/svg" xmlns:xlink="http://www.w3.org/1999/xlink" width="500" zoomAndPan="magnify" viewBox="0 0 375 374.999991" height="500" preserveAspectRatio="xMidYMid meet" version="1.0"><defs><clipPath id="0a5fcb4f5d"><path d="M 34 38 L 328 38 L 328 317 L 34 317 Z M 34 38 " clip-rule="nonzero"/></clipPath><clipPath id="42883ca4be"><path d="M 131.25 187.5 L 187.5 187.5 L 187.5 243.75 L 131.25 243.75 Z M 131.25 187.5 " clip-rule="nonzero"/></clipPath><clipPath id="e9a08aad6e"><path d="M 0.25 0.5 L 56.5 0.5 L 56.5 56.75 L 0.25 56.75 Z M 0.25 0.5 " clip-rule="nonzero"/></clipPath><clipPath id="61a8c446c2"><rect x="0" width="57" y="0" height="57"/></clipPath></defs><g clip-path="url(#0a5fcb4f5d)"><path fill="#a0ff88" d="M 176.226562 -87.824219 C 249.761719 -87.824219 318.898438 -59.1875 370.894531 -7.191406 C 422.890625 44.808594 451.527344 113.941406 451.527344 187.476562 C 451.527344 261.011719 422.890625 330.148438 370.894531 382.144531 C 318.898438 434.140625 249.761719 462.777344 176.226562 462.777344 C 102.691406 462.777344 33.558594 434.140625 -18.441406 382.144531 C -70.4375 330.148438 -99.074219 261.011719 -99.074219 187.476562 C -99.074219 113.941406 -70.4375 44.808594 -18.441406 -7.191406 C 33.558594 -59.1875 102.691406 -87.824219 176.226562 -87.824219 Z M 176.226562 -129.234375 C 91.628906 -129.234375 12.097656 -96.289062 -47.71875 -36.472656 C -107.539062 23.347656 -140.484375 102.878906 -140.484375 187.476562 C -140.484375 272.074219 -107.539062 351.605469 -47.71875 411.425781 C 12.097656 471.242188 91.628906 504.1875 176.226562 504.1875 C 260.824219 504.1875 340.355469 471.242188 400.175781 411.425781 C 459.996094 351.605469 492.9375 272.074219 492.9375 187.476562 C 492.9375 102.878906 459.996094 23.347656 400.175781 -36.472656 C 340.355469 -96.289062 260.824219 -129.234375 176.226562 -129.234375 " fill-opacity="1" fill-rule="nonzero"/></g><path fill="#a0ff88" d="M 197.144531 75.289062 L 285.023438 248.75 C 292.324219 263.164062 281.84375 280.207031 265.6875 280.199219 L 89.761719 280.113281 C 73.605469 280.105469 63.140625 263.050781 70.457031 248.644531 L 158.503906 75.269531 C 166.535156 59.453125 189.128906 59.464844 197.144531 75.289062 " fill-opacity="1" fill-rule="nonzero"/><g clip-path="url(#42883ca4be)"><g transform="matrix(1, 0, 0, 1, 131, 187)"><g clip-path="url(#61a8c446c2)"><g clip-path="url(#e9a08aad6e)"><path fill="#a0ff88" d="M 0.25 0.5 L 56.5 0.5 L 56.5 56.75 L 0.25 56.75 Z M 0.25 0.5 " fill-opacity="1" fill-rule="nonzero"/></g></g></g></g></svg>