<svg xmlns="http://www.w3.org/2000/svg" xmlns:xlink="http://www.w3.org/1999/xlink" width="500" zoomAndPan="magnify" viewBox="0 0 375 374.999991" height="500" preserveAspectRatio="xMidYMid meet" version="1.0"><defs><filter x="0%" y="0%" width="100%" height="100%" id="3575ab83a3"><feColorMatrix values="0 0 0 0 1 0 0 0 0 1 0 0 0 0 1 0 0 0 1 0" color-interpolation-filters="sRGB"/></filter><clipPath id="6fc92ce4c3"><path d="M 2.59375 4.378906 L 350.394531 4.378906 L 350.394531 187.941406 L 2.59375 187.941406 Z M 2.59375 4.378906 " clip-rule="nonzero"/></clipPath><clipPath id="07310b688b"><path d="M 5 6 L 348 6 L 348 187.941406 L 5 187.941406 Z M 5 6 " clip-rule="nonzero"/></clipPath><mask id="bfa63a5a3d"><g filter="url(#3575ab83a3)"><rect x="-93.5" width="540" fill="#000000" y="-82.499998" height="539.999987" fill-opacity="0.1"/></g></mask><clipPath id="48d2da78ce"><path d="M 0.320312 1 L 342.800781 1 L 342.800781 181.941406 L 0.320312 181.941406 Z M 0.320312 1 " clip-rule="nonzero"/></clipPath><clipPath id="a1400e51d4"><rect x="0" width="343" y="0" height="182"/></clipPath><clipPath id="f359697070"><path d="M 2.59375 187.636719 L 350.398438 187.636719 L 350.398438 370.328125 L 2.59375 370.328125 Z M 2.59375 187.636719 " clip-rule="nonzero"/></clipPath><clipPath id="153767bd7b"><path d="M 5 187.636719 L 348 187.636719 L 348 370 L 5 370 Z M 5 187.636719 " clip-rule="nonzero"/></clipPath><mask id="81351c4dbd"><g filter="url(#3575ab83a3)"><rect x="-93.5" width="540" fill="#000000" y="-82.499998" height="539.999987" fill-opacity="0.1"/></g></mask><clipPath id="b386185740"><path d="M 0.320312 0.636719 L 342.800781 0.636719 L 342.800781 181 L 0.320312 181 Z M 0.320312 0.636719 " clip-rule="nonzero"/></clipPath><clipPath id="8664d48a9e"><rect x="0" width="343" y="0" height="183"/></clipPath><clipPath id="b1a1104e57"><rect x="0" width="351" y="0" height="375"/></clipPath></defs><g transform="matrix(1, 0, 0, 1, 11, 0)"><g clip-path="url(#b1a1104e57)"><g clip-path="url(#6fc92ce4c3)"><path fill="#e7adff" d="M 201.066406 543.304688 L 318.230469 543.304688 L 350.285156 511.296875 L 350.285156 380.472656 L 340.457031 370.644531 L 340.457031 179.5625 L 350.285156 169.707031 L 350.285156 38.933594 L 318.230469 6.902344 L 201.066406 6.902344 L 198.621094 4.378906 L 154.367188 4.378906 L 151.898438 6.902344 L 34.785156 6.902344 L 2.675781 38.933594 L 2.675781 169.707031 L 12.503906 179.535156 L 12.503906 370.617188 L 2.675781 380.445312 L 2.675781 511.273438 L 34.785156 543.277344 L 151.898438 543.277344 L 154.367188 545.796875 L 198.621094 545.796875 Z M 155.011719 544.359375 L 148.089844 537.386719 L 39.261719 537.386719 L 35.066406 541.527344 L 4.195312 510.707031 L 4.195312 483.664062 L 8.671875 479.1875 L 8.671875 409.773438 L 4.195312 405.273438 L 4.195312 381.0625 L 14.023438 371.234375 L 14.023438 178.96875 L 4.195312 169.140625 L 4.195312 144.933594 L 8.671875 140.457031 L 8.671875 70.988281 L 4.195312 66.511719 L 4.195312 39.5 L 35.066406 8.652344 L 39.261719 12.84375 L 148.089844 12.84375 L 155.011719 5.871094 L 197.976562 5.871094 L 204.898438 12.84375 L 313.753906 12.84375 L 317.894531 8.652344 L 348.820312 39.523438 L 348.820312 66.539062 L 344.316406 71.015625 L 344.316406 140.457031 L 348.820312 144.933594 L 348.820312 169.140625 L 338.992188 178.96875 L 338.992188 371.234375 L 348.820312 381.0625 L 348.820312 405.273438 L 344.316406 409.773438 L 344.316406 479.1875 L 348.820312 483.664062 L 348.820312 510.707031 L 317.894531 541.527344 L 313.753906 537.386719 L 204.871094 537.386719 L 197.953125 544.359375 Z M 155.011719 544.359375 " fill-opacity="1" fill-rule="nonzero"/></g><g clip-path="url(#07310b688b)"><g mask="url(#bfa63a5a3d)"><g transform="matrix(1, 0, 0, 1, 5, 6)"><g clip-path="url(#a1400e51d4)"><g clip-path="url(#48d2da78ce)"><path fill="#e7adff" d="M 0.945312 478.386719 L 0.945312 503.984375 L 30.09375 533.058594 L 33.566406 529.609375 L 143.835938 529.609375 L 150.757812 536.582031 L 192.230469 536.582031 L 199.152344 529.609375 L 309.472656 529.609375 L 312.894531 533.03125 L 342.070312 503.960938 L 342.070312 478.359375 L 337.566406 473.933594 L 337.566406 403.082031 L 342.070312 398.578125 L 342.070312 375.808594 L 332.242188 365.953125 L 332.242188 172.222656 L 342.070312 162.394531 L 342.070312 139.625 L 337.566406 135.175781 L 337.566406 64.269531 L 342.070312 59.792969 L 342.070312 34.246094 L 312.921875 5.148438 L 309.5 8.621094 L 199.152344 8.621094 L 192.230469 1.648438 L 150.730469 1.648438 L 143.8125 8.621094 L 33.515625 8.621094 L 30.042969 5.148438 L 0.917969 34.246094 L 0.917969 59.820312 L 5.394531 64.296875 L 5.394531 135.175781 L 0.917969 139.652344 L 0.917969 162.421875 L 10.746094 172.25 L 10.746094 365.980469 L 0.917969 375.835938 L 0.917969 398.605469 L 5.394531 403.105469 L 5.394531 473.960938 Z M 0.945312 478.386719 " fill-opacity="1" fill-rule="nonzero"/></g></g></g></g></g><g clip-path="url(#f359697070)"><path fill="#e7adff" d="M 201.066406 368.226562 L 318.230469 368.226562 L 350.289062 336.21875 L 350.289062 205.394531 L 340.460938 195.566406 L 340.460938 4.484375 L 350.289062 -5.371094 L 350.289062 -136.144531 L 318.230469 -168.175781 L 201.066406 -168.175781 L 198.621094 -170.695312 L 154.371094 -170.695312 L 151.898438 -168.175781 L 34.785156 -168.175781 L 2.679688 -136.144531 L 2.679688 -5.371094 L 12.507812 4.457031 L 12.507812 195.539062 L 2.679688 205.367188 L 2.679688 336.195312 L 34.785156 368.199219 L 151.898438 368.199219 L 154.371094 370.722656 L 198.621094 370.722656 Z M 155.011719 369.28125 L 148.09375 362.308594 L 39.261719 362.308594 L 35.070312 366.449219 L 4.195312 335.628906 L 4.195312 308.589844 L 8.671875 304.113281 L 8.671875 234.699219 L 4.195312 230.195312 L 4.195312 205.984375 L 14.023438 196.15625 L 14.023438 3.890625 L 4.195312 -5.9375 L 4.195312 -30.144531 L 8.671875 -34.621094 L 8.671875 -104.085938 L 4.195312 -108.5625 L 4.195312 -135.578125 L 35.070312 -166.425781 L 39.261719 -162.234375 L 148.09375 -162.234375 L 155.011719 -169.203125 L 197.980469 -169.203125 L 204.898438 -162.234375 L 313.753906 -162.234375 L 317.898438 -166.425781 L 348.820312 -135.554688 L 348.820312 -108.539062 L 344.320312 -104.0625 L 344.320312 -34.621094 L 348.820312 -30.144531 L 348.820312 -5.9375 L 338.992188 3.890625 L 338.992188 196.15625 L 348.820312 205.984375 L 348.820312 230.195312 L 344.320312 234.699219 L 344.320312 304.113281 L 348.820312 308.589844 L 348.820312 335.628906 L 317.898438 366.449219 L 313.753906 362.308594 L 204.875 362.308594 L 197.953125 369.28125 Z M 155.011719 369.28125 " fill-opacity="1" fill-rule="nonzero"/></g><g clip-path="url(#153767bd7b)"><g mask="url(#81351c4dbd)"><g transform="matrix(1, 0, 0, 1, 5, 187)"><g clip-path="url(#8664d48a9e)"><g clip-path="url(#b386185740)"><path fill="#e7adff" d="M 0.945312 122.308594 L 0.945312 147.90625 L 30.09375 176.980469 L 33.570312 173.53125 L 143.839844 173.53125 L 150.757812 180.503906 L 192.234375 180.503906 L 199.152344 173.53125 L 309.476562 173.53125 L 312.898438 176.953125 L 342.070312 147.882812 L 342.070312 122.28125 L 337.570312 117.859375 L 337.570312 47.003906 L 342.070312 42.5 L 342.070312 19.730469 L 332.242188 9.878906 L 332.242188 -183.855469 L 342.070312 -193.683594 L 342.070312 -216.449219 L 337.570312 -220.902344 L 337.570312 -291.808594 L 342.070312 -296.285156 L 342.070312 -321.832031 L 312.921875 -350.929688 L 309.5 -347.457031 L 199.152344 -347.457031 L 192.234375 -354.429688 L 150.734375 -354.429688 L 143.8125 -347.457031 L 33.515625 -347.457031 L 30.042969 -350.929688 L 0.921875 -321.832031 L 0.921875 -296.257812 L 5.398438 -291.78125 L 5.398438 -220.902344 L 0.921875 -216.425781 L 0.921875 -193.65625 L 10.746094 -183.828125 L 10.746094 9.902344 L 0.921875 19.757812 L 0.921875 42.527344 L 5.398438 47.027344 L 5.398438 117.882812 Z M 0.945312 122.308594 " fill-opacity="1" fill-rule="nonzero"/></g></g></g></g></g></g></g></svg>