<svg xmlns="http://www.w3.org/2000/svg" xmlns:xlink="http://www.w3.org/1999/xlink" width="1920" zoomAndPan="magnify" viewBox="0 0 1440 809.999993" height="1080" preserveAspectRatio="xMidYMid meet" version="1.0"><defs><filter x="0%" y="0%" width="100%" height="100%" id="eaf3c61bcb"><feColorMatrix values="0 0 0 0 1 0 0 0 0 1 0 0 0 0 1 0 0 0 1 0" color-interpolation-filters="sRGB"/></filter><clipPath id="ad2282ec12"><path d="M 805.558594 113.496094 L 1413.699219 113.496094 L 1413.699219 696.246094 L 805.558594 696.246094 Z M 805.558594 113.496094 " clip-rule="nonzero"/></clipPath><clipPath id="0e4df2240c"><path d="M 805.558594 117 L 1412 117 L 1412 692 L 805.558594 692 Z M 805.558594 117 " clip-rule="nonzero"/></clipPath><mask id="a2099b77b4"><g filter="url(#eaf3c61bcb)"><rect x="-144" width="1728" fill="#000000" y="-80.999999" height="971.999992" fill-opacity="0.1"/></g></mask><clipPath id="7143fd1e8a"><path d="M 0.558594 2 L 604 2 L 604 574 L 0.558594 574 Z M 0.558594 2 " clip-rule="nonzero"/></clipPath><clipPath id="1cafcdd32c"><rect x="0" width="607" y="0" height="575"/></clipPath><clipPath id="ee12ba02e8"><path d="M 25.8125 113.496094 L 634.8125 113.496094 L 634.8125 696.246094 L 25.8125 696.246094 Z M 25.8125 113.496094 " clip-rule="nonzero"/></clipPath><clipPath id="af6ea826ff"><path d="M 30 117 L 634.8125 117 L 634.8125 692 L 30 692 Z M 30 117 " clip-rule="nonzero"/></clipPath><mask id="e9cde1efc9"><g filter="url(#eaf3c61bcb)"><rect x="-144" width="1728" fill="#000000" y="-80.999999" height="971.999992" fill-opacity="0.1"/></g></mask><clipPath id="b13950e8c1"><path d="M 1 2 L 604.8125 2 L 604.8125 574 L 1 574 Z M 1 2 " clip-rule="nonzero"/></clipPath><clipPath id="6b4b1e187b"><rect x="0" width="605" y="0" height="575"/></clipPath><clipPath id="41d379460a"><path d="M 634.882812 113.496094 L 805.882812 113.496094 L 805.882812 696.246094 L 634.882812 696.246094 Z M 634.882812 113.496094 " clip-rule="nonzero"/></clipPath><clipPath id="9a25f0944e"><path d="M 634.882812 117 L 805.882812 117 L 805.882812 692 L 634.882812 692 Z M 634.882812 117 " clip-rule="nonzero"/></clipPath><mask id="538a4068c7"><g filter="url(#eaf3c61bcb)"><rect x="-144" width="1728" fill="#000000" y="-80.999999" height="971.999992" fill-opacity="0.1"/></g></mask><clipPath id="282db422ca"><path d="M 0.882812 2 L 171.882812 2 L 171.882812 574 L 0.882812 574 Z M 0.882812 2 " clip-rule="nonzero"/></clipPath><clipPath id="b440a1175f"><rect x="0" width="172" y="0" height="575"/></clipPath></defs><g clip-path="url(#ad2282ec12)"><path fill="#e7adff" d="M 1409.585938 363.808594 L 1409.585938 167.410156 L 1355.933594 113.671875 L 1136.632812 113.671875 L 1120.160156 130.148438 L 799.855469 130.148438 L 783.335938 113.671875 L 564.121094 113.671875 L 510.425781 167.410156 L 510.425781 363.808594 L 506.199219 367.90625 L 506.199219 442.085938 L 510.425781 446.226562 L 510.425781 642.539062 L 564.121094 696.363281 L 783.335938 696.363281 L 799.808594 679.886719 L 1120.117188 679.886719 L 1136.589844 696.363281 L 1355.890625 696.363281 L 1409.542969 642.539062 L 1409.542969 446.226562 L 1413.769531 442.085938 L 1413.769531 367.90625 Z M 1411.351562 441.007812 L 1399.664062 452.609375 L 1399.664062 635.035156 L 1406.609375 642.066406 L 1354.941406 693.816406 L 1309.617188 693.816406 L 1302.113281 686.3125 L 1185.753906 686.3125 L 1178.207031 693.816406 L 1137.625 693.816406 L 1121.152344 677.34375 L 798.863281 677.34375 L 782.386719 693.816406 L 741.804688 693.816406 L 734.300781 686.3125 L 617.855469 686.3125 L 610.351562 693.816406 L 565.070312 693.816406 L 513.359375 642.066406 L 520.390625 635.035156 L 520.390625 452.609375 L 508.703125 441.007812 L 508.703125 368.984375 L 520.390625 357.382812 L 520.390625 174.914062 L 513.359375 167.96875 L 565.113281 116.128906 L 610.394531 116.128906 L 617.898438 123.675781 L 734.300781 123.675781 L 741.804688 116.128906 L 782.386719 116.128906 L 798.863281 132.605469 L 1121.152344 132.605469 L 1137.625 116.128906 L 1178.207031 116.128906 L 1185.753906 123.675781 L 1302.113281 123.675781 L 1309.617188 116.128906 L 1354.941406 116.128906 L 1406.609375 167.96875 L 1399.664062 174.914062 L 1399.664062 357.425781 L 1411.351562 369.027344 Z M 1411.351562 441.007812 " fill-opacity="1" fill-rule="nonzero"/></g><g clip-path="url(#0e4df2240c)"><g mask="url(#a2099b77b4)"><g transform="matrix(1, 0, 0, 1, 805, 117)"><g clip-path="url(#1cafcdd32c)"><g clip-path="url(#7143fd1e8a)"><path fill="#e7adff" d="M 505.824219 573.886719 L 548.734375 573.886719 L 597.46875 525.023438 L 591.691406 519.199219 L 591.691406 334.355469 L 603.378906 322.757812 L 603.378906 253.234375 L 591.691406 241.632812 L 591.691406 56.703125 L 597.425781 50.96875 L 548.691406 2.0625 L 505.78125 2.0625 L 498.363281 9.609375 L 379.589844 9.609375 L 372.042969 2.0625 L 333.875 2.0625 L 317.359375 18.539062 L -7.390625 18.539062 L -23.863281 2.0625 L -62.03125 2.0625 L -69.492188 9.609375 L -188.351562 9.609375 L -195.855469 2.0625 L -238.679688 2.0625 L -287.457031 50.925781 L -281.632812 56.660156 L -281.632812 241.632812 L -293.320312 253.234375 L -293.320312 322.800781 L -281.632812 334.402344 L -281.632812 519.285156 L -287.457031 525.109375 L -238.679688 573.929688 L -195.8125 573.929688 L -188.308594 566.425781 L -69.492188 566.425781 L -61.988281 573.929688 L -23.820312 573.929688 L -7.347656 557.453125 L 317.402344 557.453125 L 333.917969 573.929688 L 372.085938 573.929688 L 379.632812 566.425781 L 498.40625 566.425781 Z M 505.824219 573.886719 " fill-opacity="1" fill-rule="nonzero"/></g></g></g></g></g><g clip-path="url(#ee12ba02e8)"><path fill="#e7adff" d="M 929.195312 363.808594 L 929.195312 167.410156 L 875.546875 113.671875 L 656.246094 113.671875 L 639.769531 130.148438 L 319.464844 130.148438 L 302.949219 113.671875 L 83.734375 113.671875 L 30.039062 167.410156 L 30.039062 363.808594 L 25.8125 367.90625 L 25.8125 442.085938 L 30.039062 446.226562 L 30.039062 642.539062 L 83.734375 696.363281 L 302.949219 696.363281 L 319.421875 679.886719 L 639.726562 679.886719 L 656.203125 696.363281 L 875.503906 696.363281 L 929.152344 642.539062 L 929.152344 446.226562 L 933.378906 442.085938 L 933.378906 367.90625 Z M 930.964844 441.007812 L 919.277344 452.609375 L 919.277344 635.035156 L 926.222656 642.066406 L 874.554688 693.816406 L 829.230469 693.816406 L 821.722656 686.3125 L 705.367188 686.3125 L 697.820312 693.816406 L 657.238281 693.816406 L 640.761719 677.34375 L 318.472656 677.34375 L 302 693.816406 L 261.417969 693.816406 L 253.914062 686.3125 L 137.46875 686.3125 L 129.964844 693.816406 L 84.683594 693.816406 L 32.972656 642.066406 L 40.003906 635.035156 L 40.003906 452.609375 L 28.316406 441.007812 L 28.316406 368.984375 L 40.003906 357.382812 L 40.003906 174.914062 L 32.972656 167.96875 L 84.726562 116.128906 L 130.007812 116.128906 L 137.511719 123.675781 L 253.914062 123.675781 L 261.417969 116.128906 L 302 116.128906 L 318.472656 132.605469 L 640.761719 132.605469 L 657.238281 116.128906 L 697.820312 116.128906 L 705.367188 123.675781 L 821.722656 123.675781 L 829.230469 116.128906 L 874.554688 116.128906 L 926.222656 167.96875 L 919.277344 174.914062 L 919.277344 357.425781 L 930.964844 369.027344 Z M 930.964844 441.007812 " fill-opacity="1" fill-rule="nonzero"/></g><g clip-path="url(#af6ea826ff)"><g mask="url(#e9cde1efc9)"><g transform="matrix(1, 0, 0, 1, 30, 117)"><g clip-path="url(#6b4b1e187b)"><g clip-path="url(#b13950e8c1)"><path fill="#e7adff" d="M 800.4375 573.886719 L 843.347656 573.886719 L 892.082031 525.023438 L 886.300781 519.199219 L 886.300781 334.355469 L 897.988281 322.757812 L 897.988281 253.234375 L 886.300781 241.632812 L 886.300781 56.703125 L 892.039062 50.96875 L 843.304688 2.0625 L 800.394531 2.0625 L 792.976562 9.609375 L 674.203125 9.609375 L 666.65625 2.0625 L 628.488281 2.0625 L 611.96875 18.539062 L 287.222656 18.539062 L 270.75 2.0625 L 232.582031 2.0625 L 225.121094 9.609375 L 106.261719 9.609375 L 98.757812 2.0625 L 55.933594 2.0625 L 7.15625 50.925781 L 12.976562 56.660156 L 12.976562 241.632812 L 1.289062 253.234375 L 1.289062 322.800781 L 12.976562 334.402344 L 12.976562 519.285156 L 7.15625 525.109375 L 55.933594 573.929688 L 98.800781 573.929688 L 106.304688 566.425781 L 225.121094 566.425781 L 232.625 573.929688 L 270.792969 573.929688 L 287.265625 557.453125 L 612.015625 557.453125 L 628.53125 573.929688 L 666.699219 573.929688 L 674.246094 566.425781 L 793.019531 566.425781 Z M 800.4375 573.886719 " fill-opacity="1" fill-rule="nonzero"/></g></g></g></g></g><g clip-path="url(#41d379460a)"><path fill="#e7adff" d="M 1238.90625 363.808594 L 1238.90625 167.410156 L 1185.257812 113.671875 L 965.957031 113.671875 L 949.480469 130.148438 L 629.175781 130.148438 L 612.660156 113.671875 L 393.445312 113.671875 L 339.75 167.410156 L 339.75 363.808594 L 335.523438 367.90625 L 335.523438 442.085938 L 339.75 446.226562 L 339.75 642.539062 L 393.445312 696.363281 L 612.660156 696.363281 L 629.132812 679.886719 L 949.4375 679.886719 L 965.914062 696.363281 L 1185.214844 696.363281 L 1238.863281 642.539062 L 1238.863281 446.226562 L 1243.089844 442.085938 L 1243.089844 367.90625 Z M 1240.675781 441.007812 L 1228.988281 452.609375 L 1228.988281 635.035156 L 1235.929688 642.066406 L 1184.265625 693.816406 L 1138.9375 693.816406 L 1131.433594 686.3125 L 1015.078125 686.3125 L 1007.53125 693.816406 L 966.949219 693.816406 L 950.472656 677.34375 L 628.183594 677.34375 L 611.710938 693.816406 L 571.128906 693.816406 L 563.625 686.3125 L 447.179688 686.3125 L 439.675781 693.816406 L 394.390625 693.816406 L 342.683594 642.066406 L 349.710938 635.035156 L 349.710938 452.609375 L 338.023438 441.007812 L 338.023438 368.984375 L 349.710938 357.382812 L 349.710938 174.914062 L 342.683594 167.96875 L 394.433594 116.128906 L 439.71875 116.128906 L 447.222656 123.675781 L 563.625 123.675781 L 571.128906 116.128906 L 611.710938 116.128906 L 628.183594 132.605469 L 950.472656 132.605469 L 966.949219 116.128906 L 1007.53125 116.128906 L 1015.078125 123.675781 L 1131.433594 123.675781 L 1138.9375 116.128906 L 1184.265625 116.128906 L 1235.929688 167.96875 L 1228.988281 174.914062 L 1228.988281 357.425781 L 1240.675781 369.027344 Z M 1240.675781 441.007812 " fill-opacity="1" fill-rule="nonzero"/></g><g clip-path="url(#9a25f0944e)"><g mask="url(#538a4068c7)"><g transform="matrix(1, 0, 0, 1, 634, 117)"><g clip-path="url(#b440a1175f)"><g clip-path="url(#282db422ca)"><path fill="#e7adff" d="M 506.144531 573.886719 L 549.058594 573.886719 L 597.792969 525.023438 L 592.011719 519.199219 L 592.011719 334.355469 L 603.699219 322.757812 L 603.699219 253.234375 L 592.011719 241.632812 L 592.011719 56.703125 L 597.75 50.96875 L 549.015625 2.0625 L 506.101562 2.0625 L 498.683594 9.609375 L 379.914062 9.609375 L 372.367188 2.0625 L 334.199219 2.0625 L 317.679688 18.539062 L -7.066406 18.539062 L -23.539062 2.0625 L -61.707031 2.0625 L -69.167969 9.609375 L -188.027344 9.609375 L -195.53125 2.0625 L -238.355469 2.0625 L -287.132812 50.925781 L -281.3125 56.660156 L -281.3125 241.632812 L -293 253.234375 L -293 322.800781 L -281.3125 334.402344 L -281.3125 519.285156 L -287.132812 525.109375 L -238.355469 573.929688 L -195.488281 573.929688 L -187.984375 566.425781 L -69.167969 566.425781 L -61.664062 573.929688 L -23.496094 573.929688 L -7.023438 557.453125 L 317.722656 557.453125 L 334.242188 573.929688 L 372.410156 573.929688 L 379.957031 566.425781 L 498.726562 566.425781 Z M 506.144531 573.886719 " fill-opacity="1" fill-rule="nonzero"/></g></g></g></g></g></svg>